M48
; DRILL file {KiCad (6.0.1)} date Wed Sep 28 09:38:19 2022
; FORMAT={-:-/ absolute / inch / decimal}
; #@! TF.CreationDate,2022-09-28T09:38:19-06:00
; #@! TF.GenerationSoftware,Kicad,Pcbnew,(6.0.1)
; #@! TF.FileFunction,Plated,1,2,PTH
FMAT,2
INCH
; #@! TA.AperFunction,Plated,PTH,ComponentDrill
T1C0.0130
; #@! TA.AperFunction,Plated,PTH,ViaDrill
T2C0.0138
; #@! TA.AperFunction,Plated,PTH,ComponentDrill
T3C0.0295
; #@! TA.AperFunction,Plated,PTH,ComponentDrill
T4C0.0320
; #@! TA.AperFunction,Plated,PTH,ComponentDrill
T5C0.0390
; #@! TA.AperFunction,Plated,PTH,ComponentDrill
T6C0.0400
; #@! TA.AperFunction,Plated,PTH,ComponentDrill
T7C0.0551
%
G90
G05
T1
X1.378Y1.8017
T2
X0.0394Y2.5591
X0.0394Y2.4803
X0.0394Y2.4016
X0.0394Y2.3228
X0.0394Y2.2441
X0.0394Y2.1654
X0.0394Y2.0866
X0.0394Y2.0079
X0.0394Y1.9291
X0.0394Y1.8504
X0.0394Y1.7717
X0.0394Y1.6929
X0.0394Y1.6142
X0.0394Y1.5354
X0.0394Y1.4567
X0.0394Y1.378
X0.0394Y1.2992
X0.0394Y1.2205
X0.0394Y1.1417
X0.0394Y1.063
X0.0394Y0.9843
X0.0394Y0.9055
X0.0394Y0.8268
X0.0394Y0.748
X0.0394Y0.6693
X0.0394Y0.5906
X0.0394Y0.5118
X0.0394Y0.4331
X0.0394Y0.3543
X0.0394Y0.2756
X0.0394Y0.1969
X0.1969Y2.7165
X0.1969Y0.0394
X0.2756Y2.7165
X0.2756Y0.0394
X0.3543Y2.7165
X0.3543Y0.0394
X0.4331Y2.7165
X0.4331Y0.0394
X0.5118Y2.7165
X0.5118Y0.0394
X0.5906Y2.7165
X0.5906Y0.0394
X0.6201Y2.3228
X0.6693Y2.7165
X0.6693Y2.2146
X0.6693Y0.0394
X0.7382Y1.25
X0.748Y2.7165
X0.748Y0.0394
X0.8268Y2.7165
X0.8268Y0.0394
X0.9055Y2.7165
X0.9055Y2.2146
X0.9055Y0.0394
X0.9843Y2.7165
X0.9843Y0.0394
X1.0039Y0.748
X1.0138Y2.4311
X1.063Y2.7165
X1.063Y0.9547
X1.1417Y2.7165
X1.1811Y2.5394
X1.2205Y2.7165
X1.2795Y2.0866
X1.2894Y1.8012
X1.2992Y2.7165
X1.378Y2.7165
X1.4567Y2.7165
X1.4665Y1.8012
X1.5354Y2.7165
X1.6142Y2.7165
X1.6831Y2.4508
X1.6929Y2.7165
X1.752Y0.748
X1.7618Y0.0394
X1.8406Y2.7165
X1.8406Y2.4902
X1.8504Y0.0394
X1.8602Y2.5787
X1.8602Y2.5394
X1.8799Y2.6969
X1.8898Y2.3031
X1.9242Y1.9045
X1.9291Y0.0394
X1.9724Y2.5059
X1.9882Y2.7165
X2.0079Y0.0394
X2.0177Y1.9931
X2.0177Y1.25
X2.0472Y2.4016
X2.0669Y2.7165
X2.0669Y2.2441
X2.0866Y0.0394
X2.1063Y0.4331
X2.126Y2.4016
X2.1457Y2.7165
X2.1614Y2.5049
X2.1654Y0.0394
X2.2244Y2.4902
X2.2244Y0.4331
X2.2441Y0.0394
X2.2539Y2.6969
X2.2539Y2.3031
X2.2638Y0.6299
X2.2736Y2.5787
X2.2736Y2.5394
X2.2933Y2.7165
X2.3228Y2.2539
X2.3228Y0.0394
X2.3622Y1.8307
X2.4016Y0.0394
X2.4803Y2.7165
X2.4803Y0.0394
X2.5295Y2.2539
X2.5295Y1.8799
X2.5591Y2.7165
X2.5591Y0.0394
X2.5718Y1.9304
X2.6389Y1.9762
X2.7165Y2.5591
X2.7165Y2.4803
X2.7165Y2.4016
X2.7165Y2.3228
X2.7165Y2.2441
X2.7165Y2.1654
X2.7165Y2.0866
X2.7165Y2.0079
X2.7165Y1.9291
X2.7165Y1.8504
X2.7165Y1.7717
X2.7165Y1.6929
X2.7165Y1.6142
X2.7165Y1.5354
X2.7165Y1.4567
X2.7165Y1.378
X2.7165Y1.2992
X2.7165Y1.2205
X2.7165Y1.1417
X2.7165Y1.063
X2.7165Y0.9843
X2.7165Y0.9055
X2.7165Y0.8268
X2.7165Y0.748
X2.7165Y0.6693
X2.7165Y0.5906
X2.7165Y0.5118
X2.7165Y0.4331
X2.7165Y0.3543
X2.7165Y0.2756
X2.7165Y0.1969
T3
X0.4911Y0.4909
X0.5911Y0.3909
X0.6911Y0.4909
X1.2785Y0.4909
X1.3785Y0.3909
X1.4785Y0.4909
X2.0659Y0.4909
X2.1659Y0.3909
X2.2659Y0.4909
T4
X1.1311Y0.1378
X1.2311Y0.1378
X1.328Y0.1378
X1.428Y0.1378
X1.5248Y0.1378
X1.6248Y0.1378
T5
X0.3051Y1.5059
X0.3051Y1.25
X0.4823Y1.5059
X0.4823Y1.25
X2.2736Y1.5059
X2.2736Y1.25
X2.4508Y1.5059
X2.4508Y1.25
T6
X1.128Y2.1366
X1.128Y2.0366
X1.228Y2.1366
X1.228Y2.0366
X1.328Y2.1366
X1.328Y2.0366
X1.428Y2.1366
X1.428Y2.0366
X1.528Y2.1366
X1.528Y2.0366
X1.628Y2.1366
X1.628Y2.0366
T7
X1.0781Y2.5394
X1.2781Y2.5394
X1.4781Y2.5394
X1.6781Y2.5394
T0
M30
