%TF.GenerationSoftware,KiCad,Pcbnew,(6.0.1)*%
%TF.CreationDate,2022-09-28T09:38:13-06:00*%
%TF.ProjectId,SENSORY_BRIDGE,53454e53-4f52-4595-9f42-52494447452e,rev?*%
%TF.SameCoordinates,PX6c3e3acPY8584910*%
%TF.FileFunction,Legend,Top*%
%TF.FilePolarity,Positive*%
%FSLAX46Y46*%
G04 Gerber Fmt 4.6, Leading zero omitted, Abs format (unit mm)*
G04 Created by KiCad (PCBNEW (6.0.1)) date 2022-09-28 09:38:13*
%MOMM*%
%LPD*%
G01*
G04 APERTURE LIST*
%ADD10C,0.300000*%
%ADD11C,1.000000*%
%ADD12C,0.150000*%
%ADD13C,0.120000*%
%ADD14C,0.180000*%
%ADD15C,0.210000*%
%ADD16C,0.101600*%
%ADD17C,0.100000*%
%ADD18C,0.200000*%
%ADD19C,0.152400*%
%ADD20C,0.127000*%
G04 APERTURE END LIST*
D10*
X38800000Y63250000D02*
X38800000Y58850000D01*
X28650000Y55700000D02*
X28650000Y51750000D01*
X38800000Y54200000D02*
X38800000Y55700000D01*
X37550000Y64500000D02*
X38800000Y63250000D01*
X43500000Y3500000D02*
X43500000Y2875000D01*
X38825000Y50350000D02*
X38825000Y51750000D01*
X41350000Y54250000D02*
X41350000Y55700000D01*
X41350000Y63250000D02*
X41350000Y57950000D01*
X31200000Y62900000D02*
X31200000Y63200000D01*
X42875000Y3500000D02*
X43500000Y3500000D01*
X43500000Y3500000D02*
X44125000Y3500000D01*
X41325000Y50350000D02*
X41325000Y51750000D01*
X43500000Y3500000D02*
X43500000Y4125000D01*
X33700000Y54250000D02*
X33750000Y54300000D01*
X42600000Y64500000D02*
X41350000Y63250000D01*
X33700000Y50350000D02*
X33700000Y51750000D01*
X31200000Y55700000D02*
X31200000Y51700000D01*
X36250000Y51700000D02*
X36250000Y55700000D01*
X28700000Y63200000D02*
X27400000Y64500000D01*
X28700000Y61600000D02*
X28700000Y63200000D01*
X27125000Y3500000D02*
X25875000Y3500000D01*
X31200000Y63200000D02*
X32500000Y64500000D01*
X33750000Y54300000D02*
X33750000Y55700000D01*
D11*
X0Y50000000D02*
X24000000Y50000000D01*
D10*
X33700000Y51700000D02*
X33750000Y51750000D01*
D12*
X19796547Y37922620D02*
X19848928Y37975000D01*
X19953690Y38027381D01*
X20215595Y38027381D01*
X20320357Y37975000D01*
X20372738Y37922620D01*
X20425119Y37817858D01*
X20425119Y37713096D01*
X20372738Y37555953D01*
X19744166Y36927381D01*
X20425119Y36927381D01*
X21106071Y38027381D02*
X21210833Y38027381D01*
X21315595Y37975000D01*
X21367976Y37922620D01*
X21420357Y37817858D01*
X21472738Y37608334D01*
X21472738Y37346429D01*
X21420357Y37136905D01*
X21367976Y37032143D01*
X21315595Y36979762D01*
X21210833Y36927381D01*
X21106071Y36927381D01*
X21001309Y36979762D01*
X20948928Y37032143D01*
X20896547Y37136905D01*
X20844166Y37346429D01*
X20844166Y37608334D01*
X20896547Y37817858D01*
X20948928Y37922620D01*
X21001309Y37975000D01*
X21106071Y38027381D01*
X21891785Y37922620D02*
X21944166Y37975000D01*
X22048928Y38027381D01*
X22310833Y38027381D01*
X22415595Y37975000D01*
X22467976Y37922620D01*
X22520357Y37817858D01*
X22520357Y37713096D01*
X22467976Y37555953D01*
X21839404Y36927381D01*
X22520357Y36927381D01*
X22939404Y37922620D02*
X22991785Y37975000D01*
X23096547Y38027381D01*
X23358452Y38027381D01*
X23463214Y37975000D01*
X23515595Y37922620D01*
X23567976Y37817858D01*
X23567976Y37713096D01*
X23515595Y37555953D01*
X22887023Y36927381D01*
X23567976Y36927381D01*
D13*
X57353333Y60041905D02*
X57060000Y60460953D01*
X56850476Y60041905D02*
X56850476Y60921905D01*
X57185714Y60921905D01*
X57269523Y60880000D01*
X57311428Y60838096D01*
X57353333Y60754286D01*
X57353333Y60628572D01*
X57311428Y60544762D01*
X57269523Y60502858D01*
X57185714Y60460953D01*
X56850476Y60460953D01*
X57772380Y60041905D02*
X57940000Y60041905D01*
X58023809Y60083810D01*
X58065714Y60125715D01*
X58149523Y60251429D01*
X58191428Y60419048D01*
X58191428Y60754286D01*
X58149523Y60838096D01*
X58107619Y60880000D01*
X58023809Y60921905D01*
X57856190Y60921905D01*
X57772380Y60880000D01*
X57730476Y60838096D01*
X57688571Y60754286D01*
X57688571Y60544762D01*
X57730476Y60460953D01*
X57772380Y60419048D01*
X57856190Y60377143D01*
X58023809Y60377143D01*
X58107619Y60419048D01*
X58149523Y60460953D01*
X58191428Y60544762D01*
X54853333Y56375715D02*
X54811428Y56333810D01*
X54685714Y56291905D01*
X54601904Y56291905D01*
X54476190Y56333810D01*
X54392380Y56417620D01*
X54350476Y56501429D01*
X54308571Y56669048D01*
X54308571Y56794762D01*
X54350476Y56962381D01*
X54392380Y57046191D01*
X54476190Y57130000D01*
X54601904Y57171905D01*
X54685714Y57171905D01*
X54811428Y57130000D01*
X54853333Y57088096D01*
X55356190Y56794762D02*
X55272380Y56836667D01*
X55230476Y56878572D01*
X55188571Y56962381D01*
X55188571Y57004286D01*
X55230476Y57088096D01*
X55272380Y57130000D01*
X55356190Y57171905D01*
X55523809Y57171905D01*
X55607619Y57130000D01*
X55649523Y57088096D01*
X55691428Y57004286D01*
X55691428Y56962381D01*
X55649523Y56878572D01*
X55607619Y56836667D01*
X55523809Y56794762D01*
X55356190Y56794762D01*
X55272380Y56752858D01*
X55230476Y56710953D01*
X55188571Y56627143D01*
X55188571Y56459524D01*
X55230476Y56375715D01*
X55272380Y56333810D01*
X55356190Y56291905D01*
X55523809Y56291905D01*
X55607619Y56333810D01*
X55649523Y56375715D01*
X55691428Y56459524D01*
X55691428Y56627143D01*
X55649523Y56710953D01*
X55607619Y56752858D01*
X55523809Y56794762D01*
X61039047Y54291905D02*
X61039047Y55171905D01*
X61458095Y54291905D02*
X61458095Y55171905D01*
X61960952Y54291905D01*
X61960952Y55171905D01*
D14*
X26280000Y54634286D02*
X26280000Y54005715D01*
X25902857Y54760000D02*
X27222857Y54320000D01*
X25902857Y53880000D01*
X27222857Y53440000D02*
X26154285Y53440000D01*
X26028571Y53377143D01*
X25965714Y53314286D01*
X25902857Y53188572D01*
X25902857Y52937143D01*
X25965714Y52811429D01*
X26028571Y52748572D01*
X26154285Y52685715D01*
X27222857Y52685715D01*
X27222857Y52182858D02*
X25902857Y51302858D01*
X27222857Y51302858D02*
X25902857Y52182858D01*
D13*
X15826666Y22083810D02*
X15952380Y22041905D01*
X16161904Y22041905D01*
X16245714Y22083810D01*
X16287619Y22125715D01*
X16329523Y22209524D01*
X16329523Y22293334D01*
X16287619Y22377143D01*
X16245714Y22419048D01*
X16161904Y22460953D01*
X15994285Y22502858D01*
X15910476Y22544762D01*
X15868571Y22586667D01*
X15826666Y22670477D01*
X15826666Y22754286D01*
X15868571Y22838096D01*
X15910476Y22880000D01*
X15994285Y22921905D01*
X16203809Y22921905D01*
X16329523Y22880000D01*
X16622857Y22921905D02*
X16832380Y22041905D01*
X17000000Y22670477D01*
X17167619Y22041905D01*
X17377142Y22921905D01*
X17628571Y22921905D02*
X18173333Y22921905D01*
X17880000Y22586667D01*
X18005714Y22586667D01*
X18089523Y22544762D01*
X18131428Y22502858D01*
X18173333Y22419048D01*
X18173333Y22209524D01*
X18131428Y22125715D01*
X18089523Y22083810D01*
X18005714Y22041905D01*
X17754285Y22041905D01*
X17670476Y22083810D01*
X17628571Y22125715D01*
X22853333Y17791905D02*
X22560000Y18210953D01*
X22350476Y17791905D02*
X22350476Y18671905D01*
X22685714Y18671905D01*
X22769523Y18630000D01*
X22811428Y18588096D01*
X22853333Y18504286D01*
X22853333Y18378572D01*
X22811428Y18294762D01*
X22769523Y18252858D01*
X22685714Y18210953D01*
X22350476Y18210953D01*
X23146666Y18671905D02*
X23733333Y18671905D01*
X23356190Y17791905D01*
X65540380Y47375715D02*
X65498476Y47333810D01*
X65372761Y47291905D01*
X65288952Y47291905D01*
X65163238Y47333810D01*
X65079428Y47417620D01*
X65037523Y47501429D01*
X64995619Y47669048D01*
X64995619Y47794762D01*
X65037523Y47962381D01*
X65079428Y48046191D01*
X65163238Y48130000D01*
X65288952Y48171905D01*
X65372761Y48171905D01*
X65498476Y48130000D01*
X65540380Y48088096D01*
X65875619Y48088096D02*
X65917523Y48130000D01*
X66001333Y48171905D01*
X66210857Y48171905D01*
X66294666Y48130000D01*
X66336571Y48088096D01*
X66378476Y48004286D01*
X66378476Y47920477D01*
X66336571Y47794762D01*
X65833714Y47291905D01*
X66378476Y47291905D01*
X28251904Y60980858D02*
X28251904Y61399905D01*
X29131904Y61399905D01*
X28712857Y60687524D02*
X28712857Y60394191D01*
X28251904Y60268477D02*
X28251904Y60687524D01*
X29131904Y60687524D01*
X29131904Y60268477D01*
X28251904Y59891334D02*
X29131904Y59891334D01*
X29131904Y59681810D01*
X29090000Y59556096D01*
X29006190Y59472286D01*
X28922380Y59430381D01*
X28754761Y59388477D01*
X28629047Y59388477D01*
X28461428Y59430381D01*
X28377619Y59472286D01*
X28293809Y59556096D01*
X28251904Y59681810D01*
X28251904Y59891334D01*
X28335714Y57838000D02*
X28293809Y57879905D01*
X28251904Y58005620D01*
X28251904Y58089429D01*
X28293809Y58215143D01*
X28377619Y58298953D01*
X28461428Y58340858D01*
X28629047Y58382762D01*
X28754761Y58382762D01*
X28922380Y58340858D01*
X29006190Y58298953D01*
X29090000Y58215143D01*
X29131904Y58089429D01*
X29131904Y58005620D01*
X29090000Y57879905D01*
X29048095Y57838000D01*
X28251904Y57041810D02*
X28251904Y57460858D01*
X29131904Y57460858D01*
X28251904Y56748477D02*
X29131904Y56748477D01*
X28251904Y56245620D02*
X28754761Y56622762D01*
X29131904Y56245620D02*
X28629047Y56748477D01*
X58826666Y34643810D02*
X58952380Y34601905D01*
X59161904Y34601905D01*
X59245714Y34643810D01*
X59287619Y34685715D01*
X59329523Y34769524D01*
X59329523Y34853334D01*
X59287619Y34937143D01*
X59245714Y34979048D01*
X59161904Y35020953D01*
X58994285Y35062858D01*
X58910476Y35104762D01*
X58868571Y35146667D01*
X58826666Y35230477D01*
X58826666Y35314286D01*
X58868571Y35398096D01*
X58910476Y35440000D01*
X58994285Y35481905D01*
X59203809Y35481905D01*
X59329523Y35440000D01*
X59622857Y35481905D02*
X59832380Y34601905D01*
X60000000Y35230477D01*
X60167619Y34601905D01*
X60377142Y35481905D01*
X60670476Y35398096D02*
X60712380Y35440000D01*
X60796190Y35481905D01*
X61005714Y35481905D01*
X61089523Y35440000D01*
X61131428Y35398096D01*
X61173333Y35314286D01*
X61173333Y35230477D01*
X61131428Y35104762D01*
X60628571Y34601905D01*
X61173333Y34601905D01*
X4897238Y44293334D02*
X5316285Y44293334D01*
X4813428Y44041905D02*
X5106761Y44921905D01*
X5400095Y44041905D01*
X5693428Y44041905D02*
X5693428Y44921905D01*
X5902952Y44921905D01*
X6028666Y44880000D01*
X6112476Y44796191D01*
X6154380Y44712381D01*
X6196285Y44544762D01*
X6196285Y44419048D01*
X6154380Y44251429D01*
X6112476Y44167620D01*
X6028666Y44083810D01*
X5902952Y44041905D01*
X5693428Y44041905D01*
X6447714Y44921905D02*
X6741047Y44041905D01*
X7034380Y44921905D01*
X7285809Y44293334D02*
X7704857Y44293334D01*
X7202000Y44041905D02*
X7495333Y44921905D01*
X7788666Y44041905D01*
X8082000Y44041905D02*
X8082000Y44921905D01*
X8584857Y44041905D01*
X8584857Y44921905D01*
X9506761Y44125715D02*
X9464857Y44083810D01*
X9339142Y44041905D01*
X9255333Y44041905D01*
X9129619Y44083810D01*
X9045809Y44167620D01*
X9003904Y44251429D01*
X8962000Y44419048D01*
X8962000Y44544762D01*
X9003904Y44712381D01*
X9045809Y44796191D01*
X9129619Y44880000D01*
X9255333Y44921905D01*
X9339142Y44921905D01*
X9464857Y44880000D01*
X9506761Y44838096D01*
X9883904Y44502858D02*
X10177238Y44502858D01*
X10302952Y44041905D02*
X9883904Y44041905D01*
X9883904Y44921905D01*
X10302952Y44921905D01*
X10680095Y44041905D02*
X10680095Y44921905D01*
X10889619Y44921905D01*
X11015333Y44880000D01*
X11099142Y44796191D01*
X11141047Y44712381D01*
X11182952Y44544762D01*
X11182952Y44419048D01*
X11141047Y44251429D01*
X11099142Y44167620D01*
X11015333Y44083810D01*
X10889619Y44041905D01*
X10680095Y44041905D01*
X12188666Y44293334D02*
X12607714Y44293334D01*
X12104857Y44041905D02*
X12398190Y44921905D01*
X12691523Y44041905D01*
X12984857Y44921905D02*
X12984857Y44209524D01*
X13026761Y44125715D01*
X13068666Y44083810D01*
X13152476Y44041905D01*
X13320095Y44041905D01*
X13403904Y44083810D01*
X13445809Y44125715D01*
X13487714Y44209524D01*
X13487714Y44921905D01*
X13906761Y44041905D02*
X13906761Y44921905D01*
X14116285Y44921905D01*
X14242000Y44880000D01*
X14325809Y44796191D01*
X14367714Y44712381D01*
X14409619Y44544762D01*
X14409619Y44419048D01*
X14367714Y44251429D01*
X14325809Y44167620D01*
X14242000Y44083810D01*
X14116285Y44041905D01*
X13906761Y44041905D01*
X14786761Y44041905D02*
X14786761Y44921905D01*
X15373428Y44921905D02*
X15541047Y44921905D01*
X15624857Y44880000D01*
X15708666Y44796191D01*
X15750571Y44628572D01*
X15750571Y44335239D01*
X15708666Y44167620D01*
X15624857Y44083810D01*
X15541047Y44041905D01*
X15373428Y44041905D01*
X15289619Y44083810D01*
X15205809Y44167620D01*
X15163904Y44335239D01*
X15163904Y44628572D01*
X15205809Y44796191D01*
X15289619Y44880000D01*
X15373428Y44921905D01*
X16672476Y44921905D02*
X16965809Y44041905D01*
X17259142Y44921905D01*
X17552476Y44041905D02*
X17552476Y44921905D01*
X17929619Y44083810D02*
X18055333Y44041905D01*
X18264857Y44041905D01*
X18348666Y44083810D01*
X18390571Y44125715D01*
X18432476Y44209524D01*
X18432476Y44293334D01*
X18390571Y44377143D01*
X18348666Y44419048D01*
X18264857Y44460953D01*
X18097238Y44502858D01*
X18013428Y44544762D01*
X17971523Y44586667D01*
X17929619Y44670477D01*
X17929619Y44754286D01*
X17971523Y44838096D01*
X18013428Y44880000D01*
X18097238Y44921905D01*
X18306761Y44921905D01*
X18432476Y44880000D01*
X18809619Y44921905D02*
X18809619Y44209524D01*
X18851523Y44125715D01*
X18893428Y44083810D01*
X18977238Y44041905D01*
X19144857Y44041905D01*
X19228666Y44083810D01*
X19270571Y44125715D01*
X19312476Y44209524D01*
X19312476Y44921905D01*
X19689619Y44293334D02*
X20108666Y44293334D01*
X19605809Y44041905D02*
X19899142Y44921905D01*
X20192476Y44041905D01*
X20904857Y44041905D02*
X20485809Y44041905D01*
X20485809Y44921905D01*
X21198190Y44041905D02*
X21198190Y44921905D01*
X21533428Y44921905D02*
X22120095Y44921905D01*
X21533428Y44041905D01*
X22120095Y44041905D01*
X22455333Y44502858D02*
X22748666Y44502858D01*
X22874380Y44041905D02*
X22455333Y44041905D01*
X22455333Y44921905D01*
X22874380Y44921905D01*
X23754380Y44041905D02*
X23461047Y44460953D01*
X23251523Y44041905D02*
X23251523Y44921905D01*
X23586761Y44921905D01*
X23670571Y44880000D01*
X23712476Y44838096D01*
X23754380Y44754286D01*
X23754380Y44628572D01*
X23712476Y44544762D01*
X23670571Y44502858D01*
X23586761Y44460953D01*
X23251523Y44460953D01*
X2257238Y41041905D02*
X2257238Y41921905D01*
X2466761Y41921905D01*
X2592476Y41880000D01*
X2676285Y41796191D01*
X2718190Y41712381D01*
X2760095Y41544762D01*
X2760095Y41419048D01*
X2718190Y41251429D01*
X2676285Y41167620D01*
X2592476Y41083810D01*
X2466761Y41041905D01*
X2257238Y41041905D01*
X3137238Y41502858D02*
X3430571Y41502858D01*
X3556285Y41041905D02*
X3137238Y41041905D01*
X3137238Y41921905D01*
X3556285Y41921905D01*
X3891523Y41083810D02*
X4017238Y41041905D01*
X4226761Y41041905D01*
X4310571Y41083810D01*
X4352476Y41125715D01*
X4394380Y41209524D01*
X4394380Y41293334D01*
X4352476Y41377143D01*
X4310571Y41419048D01*
X4226761Y41460953D01*
X4059142Y41502858D01*
X3975333Y41544762D01*
X3933428Y41586667D01*
X3891523Y41670477D01*
X3891523Y41754286D01*
X3933428Y41838096D01*
X3975333Y41880000D01*
X4059142Y41921905D01*
X4268666Y41921905D01*
X4394380Y41880000D01*
X4771523Y41041905D02*
X4771523Y41921905D01*
X5651523Y41880000D02*
X5567714Y41921905D01*
X5442000Y41921905D01*
X5316285Y41880000D01*
X5232476Y41796191D01*
X5190571Y41712381D01*
X5148666Y41544762D01*
X5148666Y41419048D01*
X5190571Y41251429D01*
X5232476Y41167620D01*
X5316285Y41083810D01*
X5442000Y41041905D01*
X5525809Y41041905D01*
X5651523Y41083810D01*
X5693428Y41125715D01*
X5693428Y41419048D01*
X5525809Y41419048D01*
X6070571Y41041905D02*
X6070571Y41921905D01*
X6573428Y41041905D01*
X6573428Y41921905D01*
X6992476Y41502858D02*
X7285809Y41502858D01*
X7411523Y41041905D02*
X6992476Y41041905D01*
X6992476Y41921905D01*
X7411523Y41921905D01*
X7788666Y41041905D02*
X7788666Y41921905D01*
X7998190Y41921905D01*
X8123904Y41880000D01*
X8207714Y41796191D01*
X8249619Y41712381D01*
X8291523Y41544762D01*
X8291523Y41419048D01*
X8249619Y41251429D01*
X8207714Y41167620D01*
X8123904Y41083810D01*
X7998190Y41041905D01*
X7788666Y41041905D01*
X9632476Y41502858D02*
X9758190Y41460953D01*
X9800095Y41419048D01*
X9842000Y41335239D01*
X9842000Y41209524D01*
X9800095Y41125715D01*
X9758190Y41083810D01*
X9674380Y41041905D01*
X9339142Y41041905D01*
X9339142Y41921905D01*
X9632476Y41921905D01*
X9716285Y41880000D01*
X9758190Y41838096D01*
X9800095Y41754286D01*
X9800095Y41670477D01*
X9758190Y41586667D01*
X9716285Y41544762D01*
X9632476Y41502858D01*
X9339142Y41502858D01*
X10386761Y41460953D02*
X10386761Y41041905D01*
X10093428Y41921905D02*
X10386761Y41460953D01*
X10680095Y41921905D01*
X12146761Y41125715D02*
X12104857Y41083810D01*
X11979142Y41041905D01*
X11895333Y41041905D01*
X11769619Y41083810D01*
X11685809Y41167620D01*
X11643904Y41251429D01*
X11602000Y41419048D01*
X11602000Y41544762D01*
X11643904Y41712381D01*
X11685809Y41796191D01*
X11769619Y41880000D01*
X11895333Y41921905D01*
X11979142Y41921905D01*
X12104857Y41880000D01*
X12146761Y41838096D01*
X12691523Y41921905D02*
X12859142Y41921905D01*
X12942952Y41880000D01*
X13026761Y41796191D01*
X13068666Y41628572D01*
X13068666Y41335239D01*
X13026761Y41167620D01*
X12942952Y41083810D01*
X12859142Y41041905D01*
X12691523Y41041905D01*
X12607714Y41083810D01*
X12523904Y41167620D01*
X12482000Y41335239D01*
X12482000Y41628572D01*
X12523904Y41796191D01*
X12607714Y41880000D01*
X12691523Y41921905D01*
X13445809Y41041905D02*
X13445809Y41921905D01*
X13948666Y41041905D01*
X13948666Y41921905D01*
X14367714Y41041905D02*
X14367714Y41921905D01*
X14870571Y41041905D01*
X14870571Y41921905D01*
X15457238Y41921905D02*
X15624857Y41921905D01*
X15708666Y41880000D01*
X15792476Y41796191D01*
X15834380Y41628572D01*
X15834380Y41335239D01*
X15792476Y41167620D01*
X15708666Y41083810D01*
X15624857Y41041905D01*
X15457238Y41041905D01*
X15373428Y41083810D01*
X15289619Y41167620D01*
X15247714Y41335239D01*
X15247714Y41628572D01*
X15289619Y41796191D01*
X15373428Y41880000D01*
X15457238Y41921905D01*
X16714380Y41041905D02*
X16421047Y41460953D01*
X16211523Y41041905D02*
X16211523Y41921905D01*
X16546761Y41921905D01*
X16630571Y41880000D01*
X16672476Y41838096D01*
X16714380Y41754286D01*
X16714380Y41628572D01*
X16672476Y41544762D01*
X16630571Y41502858D01*
X16546761Y41460953D01*
X16211523Y41460953D01*
X17762000Y41041905D02*
X17762000Y41921905D01*
X18264857Y41041905D01*
X18264857Y41921905D01*
X18683904Y41041905D02*
X18683904Y41921905D01*
X19061047Y41083810D02*
X19186761Y41041905D01*
X19396285Y41041905D01*
X19480095Y41083810D01*
X19522000Y41125715D01*
X19563904Y41209524D01*
X19563904Y41293334D01*
X19522000Y41377143D01*
X19480095Y41419048D01*
X19396285Y41460953D01*
X19228666Y41502858D01*
X19144857Y41544762D01*
X19102952Y41586667D01*
X19061047Y41670477D01*
X19061047Y41754286D01*
X19102952Y41838096D01*
X19144857Y41880000D01*
X19228666Y41921905D01*
X19438190Y41921905D01*
X19563904Y41880000D01*
X19941047Y41041905D02*
X19941047Y41921905D01*
X19941047Y41502858D02*
X20443904Y41502858D01*
X20443904Y41041905D02*
X20443904Y41921905D01*
X20862952Y41041905D02*
X20862952Y41921905D01*
X21533428Y41921905D02*
X21533428Y41293334D01*
X21491523Y41167620D01*
X21407714Y41083810D01*
X21282000Y41041905D01*
X21198190Y41041905D01*
X21952476Y41041905D02*
X21952476Y41921905D01*
X22371523Y41041905D02*
X22371523Y41921905D01*
X22664857Y41293334D01*
X22958190Y41921905D01*
X22958190Y41041905D01*
X23335333Y41293334D02*
X23754380Y41293334D01*
X23251523Y41041905D02*
X23544857Y41921905D01*
X23838190Y41041905D01*
X50404761Y67421905D02*
X50404761Y66709524D01*
X50446666Y66625715D01*
X50488571Y66583810D01*
X50572380Y66541905D01*
X50740000Y66541905D01*
X50823809Y66583810D01*
X50865714Y66625715D01*
X50907619Y66709524D01*
X50907619Y67421905D01*
X51284761Y66583810D02*
X51410476Y66541905D01*
X51620000Y66541905D01*
X51703809Y66583810D01*
X51745714Y66625715D01*
X51787619Y66709524D01*
X51787619Y66793334D01*
X51745714Y66877143D01*
X51703809Y66919048D01*
X51620000Y66960953D01*
X51452380Y67002858D01*
X51368571Y67044762D01*
X51326666Y67086667D01*
X51284761Y67170477D01*
X51284761Y67254286D01*
X51326666Y67338096D01*
X51368571Y67380000D01*
X51452380Y67421905D01*
X51661904Y67421905D01*
X51787619Y67380000D01*
X52458095Y67002858D02*
X52583809Y66960953D01*
X52625714Y66919048D01*
X52667619Y66835239D01*
X52667619Y66709524D01*
X52625714Y66625715D01*
X52583809Y66583810D01*
X52500000Y66541905D01*
X52164761Y66541905D01*
X52164761Y67421905D01*
X52458095Y67421905D01*
X52541904Y67380000D01*
X52583809Y67338096D01*
X52625714Y67254286D01*
X52625714Y67170477D01*
X52583809Y67086667D01*
X52541904Y67044762D01*
X52458095Y67002858D01*
X52164761Y67002858D01*
X53044761Y66877143D02*
X53715238Y66877143D01*
X54637142Y66625715D02*
X54595238Y66583810D01*
X54469523Y66541905D01*
X54385714Y66541905D01*
X54260000Y66583810D01*
X54176190Y66667620D01*
X54134285Y66751429D01*
X54092380Y66919048D01*
X54092380Y67044762D01*
X54134285Y67212381D01*
X54176190Y67296191D01*
X54260000Y67380000D01*
X54385714Y67421905D01*
X54469523Y67421905D01*
X54595238Y67380000D01*
X54637142Y67338096D01*
X49853333Y17875715D02*
X49811428Y17833810D01*
X49685714Y17791905D01*
X49601904Y17791905D01*
X49476190Y17833810D01*
X49392380Y17917620D01*
X49350476Y18001429D01*
X49308571Y18169048D01*
X49308571Y18294762D01*
X49350476Y18462381D01*
X49392380Y18546191D01*
X49476190Y18630000D01*
X49601904Y18671905D01*
X49685714Y18671905D01*
X49811428Y18630000D01*
X49853333Y18588096D01*
X50649523Y18671905D02*
X50230476Y18671905D01*
X50188571Y18252858D01*
X50230476Y18294762D01*
X50314285Y18336667D01*
X50523809Y18336667D01*
X50607619Y18294762D01*
X50649523Y18252858D01*
X50691428Y18169048D01*
X50691428Y17959524D01*
X50649523Y17875715D01*
X50607619Y17833810D01*
X50523809Y17791905D01*
X50314285Y17791905D01*
X50230476Y17833810D01*
X50188571Y17875715D01*
X61329523Y50630000D02*
X61245714Y50671905D01*
X61120000Y50671905D01*
X60994285Y50630000D01*
X60910476Y50546191D01*
X60868571Y50462381D01*
X60826666Y50294762D01*
X60826666Y50169048D01*
X60868571Y50001429D01*
X60910476Y49917620D01*
X60994285Y49833810D01*
X61120000Y49791905D01*
X61203809Y49791905D01*
X61329523Y49833810D01*
X61371428Y49875715D01*
X61371428Y50169048D01*
X61203809Y50169048D01*
X61748571Y49791905D02*
X61748571Y50671905D01*
X62251428Y49791905D01*
X62251428Y50671905D01*
X62670476Y49791905D02*
X62670476Y50671905D01*
X62880000Y50671905D01*
X63005714Y50630000D01*
X63089523Y50546191D01*
X63131428Y50462381D01*
X63173333Y50294762D01*
X63173333Y50169048D01*
X63131428Y50001429D01*
X63089523Y49917620D01*
X63005714Y49833810D01*
X62880000Y49791905D01*
X62670476Y49791905D01*
X37091904Y45142858D02*
X37971904Y45142858D01*
X37343333Y44849524D01*
X37971904Y44556191D01*
X37091904Y44556191D01*
X37091904Y44137143D02*
X37971904Y44137143D01*
X37175714Y43215239D02*
X37133809Y43257143D01*
X37091904Y43382858D01*
X37091904Y43466667D01*
X37133809Y43592381D01*
X37217619Y43676191D01*
X37301428Y43718096D01*
X37469047Y43760000D01*
X37594761Y43760000D01*
X37762380Y43718096D01*
X37846190Y43676191D01*
X37930000Y43592381D01*
X37971904Y43466667D01*
X37971904Y43382858D01*
X37930000Y43257143D01*
X37888095Y43215239D01*
X40926904Y49699048D02*
X41806904Y49699048D01*
X41806904Y49112381D02*
X41806904Y48944762D01*
X41765000Y48860953D01*
X41681190Y48777143D01*
X41513571Y48735239D01*
X41220238Y48735239D01*
X41052619Y48777143D01*
X40968809Y48860953D01*
X40926904Y48944762D01*
X40926904Y49112381D01*
X40968809Y49196191D01*
X41052619Y49280000D01*
X41220238Y49321905D01*
X41513571Y49321905D01*
X41681190Y49280000D01*
X41765000Y49196191D01*
X41806904Y49112381D01*
X40926904Y47897143D02*
X40926904Y48400000D01*
X40926904Y48148572D02*
X41806904Y48148572D01*
X41681190Y48232381D01*
X41597380Y48316191D01*
X41555476Y48400000D01*
X41806904Y47603810D02*
X41806904Y47017143D01*
X40926904Y47394286D01*
X26916285Y39791905D02*
X26622952Y40210953D01*
X26413428Y39791905D02*
X26413428Y40671905D01*
X26748666Y40671905D01*
X26832476Y40630000D01*
X26874380Y40588096D01*
X26916285Y40504286D01*
X26916285Y40378572D01*
X26874380Y40294762D01*
X26832476Y40252858D01*
X26748666Y40210953D01*
X26413428Y40210953D01*
X27419142Y40294762D02*
X27335333Y40336667D01*
X27293428Y40378572D01*
X27251523Y40462381D01*
X27251523Y40504286D01*
X27293428Y40588096D01*
X27335333Y40630000D01*
X27419142Y40671905D01*
X27586761Y40671905D01*
X27670571Y40630000D01*
X27712476Y40588096D01*
X27754380Y40504286D01*
X27754380Y40462381D01*
X27712476Y40378572D01*
X27670571Y40336667D01*
X27586761Y40294762D01*
X27419142Y40294762D01*
X27335333Y40252858D01*
X27293428Y40210953D01*
X27251523Y40127143D01*
X27251523Y39959524D01*
X27293428Y39875715D01*
X27335333Y39833810D01*
X27419142Y39791905D01*
X27586761Y39791905D01*
X27670571Y39833810D01*
X27712476Y39875715D01*
X27754380Y39959524D01*
X27754380Y40127143D01*
X27712476Y40210953D01*
X27670571Y40252858D01*
X27586761Y40294762D01*
X34231904Y57502762D02*
X34231904Y56999905D01*
X33351904Y57251334D02*
X34231904Y57251334D01*
X34231904Y56790381D02*
X33351904Y56203715D01*
X34231904Y56203715D02*
X33351904Y56790381D01*
X29853333Y7291905D02*
X29560000Y7710953D01*
X29350476Y7291905D02*
X29350476Y8171905D01*
X29685714Y8171905D01*
X29769523Y8130000D01*
X29811428Y8088096D01*
X29853333Y8004286D01*
X29853333Y7878572D01*
X29811428Y7794762D01*
X29769523Y7752858D01*
X29685714Y7710953D01*
X29350476Y7710953D01*
X30607619Y8171905D02*
X30440000Y8171905D01*
X30356190Y8130000D01*
X30314285Y8088096D01*
X30230476Y7962381D01*
X30188571Y7794762D01*
X30188571Y7459524D01*
X30230476Y7375715D01*
X30272380Y7333810D01*
X30356190Y7291905D01*
X30523809Y7291905D01*
X30607619Y7333810D01*
X30649523Y7375715D01*
X30691428Y7459524D01*
X30691428Y7669048D01*
X30649523Y7752858D01*
X30607619Y7794762D01*
X30523809Y7836667D01*
X30356190Y7836667D01*
X30272380Y7794762D01*
X30230476Y7752858D01*
X30188571Y7669048D01*
X19853333Y17875715D02*
X19811428Y17833810D01*
X19685714Y17791905D01*
X19601904Y17791905D01*
X19476190Y17833810D01*
X19392380Y17917620D01*
X19350476Y18001429D01*
X19308571Y18169048D01*
X19308571Y18294762D01*
X19350476Y18462381D01*
X19392380Y18546191D01*
X19476190Y18630000D01*
X19601904Y18671905D01*
X19685714Y18671905D01*
X19811428Y18630000D01*
X19853333Y18588096D01*
X20146666Y18671905D02*
X20691428Y18671905D01*
X20398095Y18336667D01*
X20523809Y18336667D01*
X20607619Y18294762D01*
X20649523Y18252858D01*
X20691428Y18169048D01*
X20691428Y17959524D01*
X20649523Y17875715D01*
X20607619Y17833810D01*
X20523809Y17791905D01*
X20272380Y17791905D01*
X20188571Y17833810D01*
X20146666Y17875715D01*
X43752857Y35518572D02*
X43752857Y35225239D01*
X43291904Y35099524D02*
X43291904Y35518572D01*
X44171904Y35518572D01*
X44171904Y35099524D01*
X43333809Y34764286D02*
X43291904Y34638572D01*
X43291904Y34429048D01*
X43333809Y34345239D01*
X43375714Y34303334D01*
X43459523Y34261429D01*
X43543333Y34261429D01*
X43627142Y34303334D01*
X43669047Y34345239D01*
X43710952Y34429048D01*
X43752857Y34596667D01*
X43794761Y34680477D01*
X43836666Y34722381D01*
X43920476Y34764286D01*
X44004285Y34764286D01*
X44088095Y34722381D01*
X44130000Y34680477D01*
X44171904Y34596667D01*
X44171904Y34387143D01*
X44130000Y34261429D01*
X43291904Y33884286D02*
X44171904Y33884286D01*
X44171904Y33549048D01*
X44130000Y33465239D01*
X44088095Y33423334D01*
X44004285Y33381429D01*
X43878571Y33381429D01*
X43794761Y33423334D01*
X43752857Y33465239D01*
X43710952Y33549048D01*
X43710952Y33884286D01*
X44171904Y33088096D02*
X44171904Y32543334D01*
X43836666Y32836667D01*
X43836666Y32710953D01*
X43794761Y32627143D01*
X43752857Y32585239D01*
X43669047Y32543334D01*
X43459523Y32543334D01*
X43375714Y32585239D01*
X43333809Y32627143D01*
X43291904Y32710953D01*
X43291904Y32962381D01*
X43333809Y33046191D01*
X43375714Y33088096D01*
X44088095Y32208096D02*
X44130000Y32166191D01*
X44171904Y32082381D01*
X44171904Y31872858D01*
X44130000Y31789048D01*
X44088095Y31747143D01*
X44004285Y31705239D01*
X43920476Y31705239D01*
X43794761Y31747143D01*
X43291904Y32250000D01*
X43291904Y31705239D01*
X43627142Y31328096D02*
X43627142Y30657620D01*
X43333809Y30280477D02*
X43291904Y30154762D01*
X43291904Y29945239D01*
X43333809Y29861429D01*
X43375714Y29819524D01*
X43459523Y29777620D01*
X43543333Y29777620D01*
X43627142Y29819524D01*
X43669047Y29861429D01*
X43710952Y29945239D01*
X43752857Y30112858D01*
X43794761Y30196667D01*
X43836666Y30238572D01*
X43920476Y30280477D01*
X44004285Y30280477D01*
X44088095Y30238572D01*
X44130000Y30196667D01*
X44171904Y30112858D01*
X44171904Y29903334D01*
X44130000Y29777620D01*
X44088095Y29442381D02*
X44130000Y29400477D01*
X44171904Y29316667D01*
X44171904Y29107143D01*
X44130000Y29023334D01*
X44088095Y28981429D01*
X44004285Y28939524D01*
X43920476Y28939524D01*
X43794761Y28981429D01*
X43291904Y29484286D01*
X43291904Y28939524D01*
X39853333Y7291905D02*
X39560000Y7710953D01*
X39350476Y7291905D02*
X39350476Y8171905D01*
X39685714Y8171905D01*
X39769523Y8130000D01*
X39811428Y8088096D01*
X39853333Y8004286D01*
X39853333Y7878572D01*
X39811428Y7794762D01*
X39769523Y7752858D01*
X39685714Y7710953D01*
X39350476Y7710953D01*
X40607619Y7878572D02*
X40607619Y7291905D01*
X40398095Y8213810D02*
X40188571Y7585239D01*
X40733333Y7585239D01*
X26078190Y44375715D02*
X26036285Y44333810D01*
X25910571Y44291905D01*
X25826761Y44291905D01*
X25701047Y44333810D01*
X25617238Y44417620D01*
X25575333Y44501429D01*
X25533428Y44669048D01*
X25533428Y44794762D01*
X25575333Y44962381D01*
X25617238Y45046191D01*
X25701047Y45130000D01*
X25826761Y45171905D01*
X25910571Y45171905D01*
X26036285Y45130000D01*
X26078190Y45088096D01*
X26916285Y44291905D02*
X26413428Y44291905D01*
X26664857Y44291905D02*
X26664857Y45171905D01*
X26581047Y45046191D01*
X26497238Y44962381D01*
X26413428Y44920477D01*
X27461047Y45171905D02*
X27544857Y45171905D01*
X27628666Y45130000D01*
X27670571Y45088096D01*
X27712476Y45004286D01*
X27754380Y44836667D01*
X27754380Y44627143D01*
X27712476Y44459524D01*
X27670571Y44375715D01*
X27628666Y44333810D01*
X27544857Y44291905D01*
X27461047Y44291905D01*
X27377238Y44333810D01*
X27335333Y44375715D01*
X27293428Y44459524D01*
X27251523Y44627143D01*
X27251523Y44836667D01*
X27293428Y45004286D01*
X27335333Y45088096D01*
X27377238Y45130000D01*
X27461047Y45171905D01*
X38426904Y49699048D02*
X39306904Y49699048D01*
X39306904Y49112381D02*
X39306904Y48944762D01*
X39265000Y48860953D01*
X39181190Y48777143D01*
X39013571Y48735239D01*
X38720238Y48735239D01*
X38552619Y48777143D01*
X38468809Y48860953D01*
X38426904Y48944762D01*
X38426904Y49112381D01*
X38468809Y49196191D01*
X38552619Y49280000D01*
X38720238Y49321905D01*
X39013571Y49321905D01*
X39181190Y49280000D01*
X39265000Y49196191D01*
X39306904Y49112381D01*
X38426904Y47897143D02*
X38426904Y48400000D01*
X38426904Y48148572D02*
X39306904Y48148572D01*
X39181190Y48232381D01*
X39097380Y48316191D01*
X39055476Y48400000D01*
X38929761Y47394286D02*
X38971666Y47478096D01*
X39013571Y47520000D01*
X39097380Y47561905D01*
X39139285Y47561905D01*
X39223095Y47520000D01*
X39265000Y47478096D01*
X39306904Y47394286D01*
X39306904Y47226667D01*
X39265000Y47142858D01*
X39223095Y47100953D01*
X39139285Y47059048D01*
X39097380Y47059048D01*
X39013571Y47100953D01*
X38971666Y47142858D01*
X38929761Y47226667D01*
X38929761Y47394286D01*
X38887857Y47478096D01*
X38845952Y47520000D01*
X38762142Y47561905D01*
X38594523Y47561905D01*
X38510714Y47520000D01*
X38468809Y47478096D01*
X38426904Y47394286D01*
X38426904Y47226667D01*
X38468809Y47142858D01*
X38510714Y47100953D01*
X38594523Y47059048D01*
X38762142Y47059048D01*
X38845952Y47100953D01*
X38887857Y47142858D01*
X38929761Y47226667D01*
X29015238Y1291905D02*
X28596190Y1291905D01*
X28596190Y2171905D01*
X29308571Y1752858D02*
X29601904Y1752858D01*
X29727619Y1291905D02*
X29308571Y1291905D01*
X29308571Y2171905D01*
X29727619Y2171905D01*
X30104761Y1291905D02*
X30104761Y2171905D01*
X30314285Y2171905D01*
X30440000Y2130000D01*
X30523809Y2046191D01*
X30565714Y1962381D01*
X30607619Y1794762D01*
X30607619Y1669048D01*
X30565714Y1501429D01*
X30523809Y1417620D01*
X30440000Y1333810D01*
X30314285Y1291905D01*
X30104761Y1291905D01*
X30900952Y2171905D02*
X31445714Y2171905D01*
X31152380Y1836667D01*
X31278095Y1836667D01*
X31361904Y1794762D01*
X31403809Y1752858D01*
X31445714Y1669048D01*
X31445714Y1459524D01*
X31403809Y1375715D01*
X31361904Y1333810D01*
X31278095Y1291905D01*
X31026666Y1291905D01*
X30942857Y1333810D01*
X30900952Y1375715D01*
X34015238Y1291905D02*
X33596190Y1291905D01*
X33596190Y2171905D01*
X34308571Y1752858D02*
X34601904Y1752858D01*
X34727619Y1291905D02*
X34308571Y1291905D01*
X34308571Y2171905D01*
X34727619Y2171905D01*
X35104761Y1291905D02*
X35104761Y2171905D01*
X35314285Y2171905D01*
X35440000Y2130000D01*
X35523809Y2046191D01*
X35565714Y1962381D01*
X35607619Y1794762D01*
X35607619Y1669048D01*
X35565714Y1501429D01*
X35523809Y1417620D01*
X35440000Y1333810D01*
X35314285Y1291905D01*
X35104761Y1291905D01*
X35942857Y2088096D02*
X35984761Y2130000D01*
X36068571Y2171905D01*
X36278095Y2171905D01*
X36361904Y2130000D01*
X36403809Y2088096D01*
X36445714Y2004286D01*
X36445714Y1920477D01*
X36403809Y1794762D01*
X35900952Y1291905D01*
X36445714Y1291905D01*
X30801904Y61567524D02*
X30801904Y61986572D01*
X31681904Y61986572D01*
X31262857Y61274191D02*
X31262857Y60980858D01*
X30801904Y60855143D02*
X30801904Y61274191D01*
X31681904Y61274191D01*
X31681904Y60855143D01*
X30801904Y60478000D02*
X31681904Y60478000D01*
X31681904Y60268477D01*
X31640000Y60142762D01*
X31556190Y60058953D01*
X31472380Y60017048D01*
X31304761Y59975143D01*
X31179047Y59975143D01*
X31011428Y60017048D01*
X30927619Y60058953D01*
X30843809Y60142762D01*
X30801904Y60268477D01*
X30801904Y60478000D01*
X30718095Y59807524D02*
X30718095Y59137048D01*
X30801904Y58927524D02*
X31681904Y58927524D01*
X31681904Y58718000D01*
X31640000Y58592286D01*
X31556190Y58508477D01*
X31472380Y58466572D01*
X31304761Y58424667D01*
X31179047Y58424667D01*
X31011428Y58466572D01*
X30927619Y58508477D01*
X30843809Y58592286D01*
X30801904Y58718000D01*
X30801904Y58927524D01*
X31053333Y58089429D02*
X31053333Y57670381D01*
X30801904Y58173239D02*
X31681904Y57879905D01*
X30801904Y57586572D01*
X31681904Y57418953D02*
X31681904Y56916096D01*
X30801904Y57167524D02*
X31681904Y57167524D01*
X31053333Y56664667D02*
X31053333Y56245620D01*
X30801904Y56748477D02*
X31681904Y56455143D01*
X30801904Y56161810D01*
D14*
X48208571Y29754286D02*
X48397142Y29691429D01*
X48460000Y29628572D01*
X48522857Y29502858D01*
X48522857Y29314286D01*
X48460000Y29188572D01*
X48397142Y29125715D01*
X48271428Y29062858D01*
X47768571Y29062858D01*
X47768571Y30382858D01*
X48208571Y30382858D01*
X48334285Y30320000D01*
X48397142Y30257143D01*
X48460000Y30131429D01*
X48460000Y30005715D01*
X48397142Y29880000D01*
X48334285Y29817143D01*
X48208571Y29754286D01*
X47768571Y29754286D01*
X49340000Y30382858D02*
X49591428Y30382858D01*
X49717142Y30320000D01*
X49842857Y30194286D01*
X49905714Y29942858D01*
X49905714Y29502858D01*
X49842857Y29251429D01*
X49717142Y29125715D01*
X49591428Y29062858D01*
X49340000Y29062858D01*
X49214285Y29125715D01*
X49088571Y29251429D01*
X49025714Y29502858D01*
X49025714Y29942858D01*
X49088571Y30194286D01*
X49214285Y30320000D01*
X49340000Y30382858D01*
X50722857Y30382858D02*
X50974285Y30382858D01*
X51100000Y30320000D01*
X51225714Y30194286D01*
X51288571Y29942858D01*
X51288571Y29502858D01*
X51225714Y29251429D01*
X51100000Y29125715D01*
X50974285Y29062858D01*
X50722857Y29062858D01*
X50597142Y29125715D01*
X50471428Y29251429D01*
X50408571Y29502858D01*
X50408571Y29942858D01*
X50471428Y30194286D01*
X50597142Y30320000D01*
X50722857Y30382858D01*
X51665714Y30382858D02*
X52420000Y30382858D01*
X52042857Y29062858D02*
X52042857Y30382858D01*
D13*
X39015238Y1291905D02*
X38596190Y1291905D01*
X38596190Y2171905D01*
X39308571Y1752858D02*
X39601904Y1752858D01*
X39727619Y1291905D02*
X39308571Y1291905D01*
X39308571Y2171905D01*
X39727619Y2171905D01*
X40104761Y1291905D02*
X40104761Y2171905D01*
X40314285Y2171905D01*
X40440000Y2130000D01*
X40523809Y2046191D01*
X40565714Y1962381D01*
X40607619Y1794762D01*
X40607619Y1669048D01*
X40565714Y1501429D01*
X40523809Y1417620D01*
X40440000Y1333810D01*
X40314285Y1291905D01*
X40104761Y1291905D01*
X41445714Y1291905D02*
X40942857Y1291905D01*
X41194285Y1291905D02*
X41194285Y2171905D01*
X41110476Y2046191D01*
X41026666Y1962381D01*
X40942857Y1920477D01*
D14*
X31134285Y66402858D02*
X30505714Y66402858D01*
X30505714Y67722858D01*
X31574285Y67094286D02*
X32014285Y67094286D01*
X32202857Y66402858D02*
X31574285Y66402858D01*
X31574285Y67722858D01*
X32202857Y67722858D01*
X32768571Y66402858D02*
X32768571Y67722858D01*
X33082857Y67722858D01*
X33271428Y67660000D01*
X33397142Y67534286D01*
X33460000Y67408572D01*
X33522857Y67157143D01*
X33522857Y66968572D01*
X33460000Y66717143D01*
X33397142Y66591429D01*
X33271428Y66465715D01*
X33082857Y66402858D01*
X32768571Y66402858D01*
X34905714Y67722858D02*
X35660000Y67722858D01*
X35282857Y66402858D02*
X35282857Y67722858D01*
X36100000Y67094286D02*
X36540000Y67094286D01*
X36728571Y66402858D02*
X36100000Y66402858D01*
X36100000Y67722858D01*
X36728571Y67722858D01*
X38048571Y66402858D02*
X37608571Y67031429D01*
X37294285Y66402858D02*
X37294285Y67722858D01*
X37797142Y67722858D01*
X37922857Y67660000D01*
X37985714Y67597143D01*
X38048571Y67471429D01*
X38048571Y67282858D01*
X37985714Y67157143D01*
X37922857Y67094286D01*
X37797142Y67031429D01*
X37294285Y67031429D01*
X38614285Y66402858D02*
X38614285Y67722858D01*
X39054285Y66780000D01*
X39494285Y67722858D01*
X39494285Y66402858D01*
D13*
X65540380Y56875715D02*
X65498476Y56833810D01*
X65372761Y56791905D01*
X65288952Y56791905D01*
X65163238Y56833810D01*
X65079428Y56917620D01*
X65037523Y57001429D01*
X64995619Y57169048D01*
X64995619Y57294762D01*
X65037523Y57462381D01*
X65079428Y57546191D01*
X65163238Y57630000D01*
X65288952Y57671905D01*
X65372761Y57671905D01*
X65498476Y57630000D01*
X65540380Y57588096D01*
X66378476Y56791905D02*
X65875619Y56791905D01*
X66127047Y56791905D02*
X66127047Y57671905D01*
X66043238Y57546191D01*
X65959428Y57462381D01*
X65875619Y57420477D01*
X47184285Y60041905D02*
X46890952Y60460953D01*
X46681428Y60041905D02*
X46681428Y60921905D01*
X47016666Y60921905D01*
X47100476Y60880000D01*
X47142380Y60838096D01*
X47184285Y60754286D01*
X47184285Y60628572D01*
X47142380Y60544762D01*
X47100476Y60502858D01*
X47016666Y60460953D01*
X46681428Y60460953D01*
X48022380Y60041905D02*
X47519523Y60041905D01*
X47770952Y60041905D02*
X47770952Y60921905D01*
X47687142Y60796191D01*
X47603333Y60712381D01*
X47519523Y60670477D01*
X48567142Y60921905D02*
X48650952Y60921905D01*
X48734761Y60880000D01*
X48776666Y60838096D01*
X48818571Y60754286D01*
X48860476Y60586667D01*
X48860476Y60377143D01*
X48818571Y60209524D01*
X48776666Y60125715D01*
X48734761Y60083810D01*
X48650952Y60041905D01*
X48567142Y60041905D01*
X48483333Y60083810D01*
X48441428Y60125715D01*
X48399523Y60209524D01*
X48357619Y60377143D01*
X48357619Y60586667D01*
X48399523Y60754286D01*
X48441428Y60838096D01*
X48483333Y60880000D01*
X48567142Y60921905D01*
X34853333Y7291905D02*
X34560000Y7710953D01*
X34350476Y7291905D02*
X34350476Y8171905D01*
X34685714Y8171905D01*
X34769523Y8130000D01*
X34811428Y8088096D01*
X34853333Y8004286D01*
X34853333Y7878572D01*
X34811428Y7794762D01*
X34769523Y7752858D01*
X34685714Y7710953D01*
X34350476Y7710953D01*
X35649523Y8171905D02*
X35230476Y8171905D01*
X35188571Y7752858D01*
X35230476Y7794762D01*
X35314285Y7836667D01*
X35523809Y7836667D01*
X35607619Y7794762D01*
X35649523Y7752858D01*
X35691428Y7669048D01*
X35691428Y7459524D01*
X35649523Y7375715D01*
X35607619Y7333810D01*
X35523809Y7291905D01*
X35314285Y7291905D01*
X35230476Y7333810D01*
X35188571Y7375715D01*
X8826666Y34643810D02*
X8952380Y34601905D01*
X9161904Y34601905D01*
X9245714Y34643810D01*
X9287619Y34685715D01*
X9329523Y34769524D01*
X9329523Y34853334D01*
X9287619Y34937143D01*
X9245714Y34979048D01*
X9161904Y35020953D01*
X8994285Y35062858D01*
X8910476Y35104762D01*
X8868571Y35146667D01*
X8826666Y35230477D01*
X8826666Y35314286D01*
X8868571Y35398096D01*
X8910476Y35440000D01*
X8994285Y35481905D01*
X9203809Y35481905D01*
X9329523Y35440000D01*
X9622857Y35481905D02*
X9832380Y34601905D01*
X10000000Y35230477D01*
X10167619Y34601905D01*
X10377142Y35481905D01*
X11173333Y34601905D02*
X10670476Y34601905D01*
X10921904Y34601905D02*
X10921904Y35481905D01*
X10838095Y35356191D01*
X10754285Y35272381D01*
X10670476Y35230477D01*
X14853333Y12041905D02*
X14560000Y12460953D01*
X14350476Y12041905D02*
X14350476Y12921905D01*
X14685714Y12921905D01*
X14769523Y12880000D01*
X14811428Y12838096D01*
X14853333Y12754286D01*
X14853333Y12628572D01*
X14811428Y12544762D01*
X14769523Y12502858D01*
X14685714Y12460953D01*
X14350476Y12460953D01*
X15146666Y12921905D02*
X15691428Y12921905D01*
X15398095Y12586667D01*
X15523809Y12586667D01*
X15607619Y12544762D01*
X15649523Y12502858D01*
X15691428Y12419048D01*
X15691428Y12209524D01*
X15649523Y12125715D01*
X15607619Y12083810D01*
X15523809Y12041905D01*
X15272380Y12041905D01*
X15188571Y12083810D01*
X15146666Y12125715D01*
X14103333Y27625715D02*
X14061428Y27583810D01*
X13935714Y27541905D01*
X13851904Y27541905D01*
X13726190Y27583810D01*
X13642380Y27667620D01*
X13600476Y27751429D01*
X13558571Y27919048D01*
X13558571Y28044762D01*
X13600476Y28212381D01*
X13642380Y28296191D01*
X13726190Y28380000D01*
X13851904Y28421905D01*
X13935714Y28421905D01*
X14061428Y28380000D01*
X14103333Y28338096D01*
X14857619Y28421905D02*
X14690000Y28421905D01*
X14606190Y28380000D01*
X14564285Y28338096D01*
X14480476Y28212381D01*
X14438571Y28044762D01*
X14438571Y27709524D01*
X14480476Y27625715D01*
X14522380Y27583810D01*
X14606190Y27541905D01*
X14773809Y27541905D01*
X14857619Y27583810D01*
X14899523Y27625715D01*
X14941428Y27709524D01*
X14941428Y27919048D01*
X14899523Y28002858D01*
X14857619Y28044762D01*
X14773809Y28086667D01*
X14606190Y28086667D01*
X14522380Y28044762D01*
X14480476Y28002858D01*
X14438571Y27919048D01*
D15*
X4283500Y46146667D02*
X4503500Y46073334D01*
X4870166Y46073334D01*
X5016833Y46146667D01*
X5090166Y46220000D01*
X5163500Y46366667D01*
X5163500Y46513334D01*
X5090166Y46660000D01*
X5016833Y46733334D01*
X4870166Y46806667D01*
X4576833Y46880000D01*
X4430166Y46953334D01*
X4356833Y47026667D01*
X4283500Y47173334D01*
X4283500Y47320000D01*
X4356833Y47466667D01*
X4430166Y47540000D01*
X4576833Y47613334D01*
X4943500Y47613334D01*
X5163500Y47540000D01*
X5823500Y46880000D02*
X6336833Y46880000D01*
X6556833Y46073334D02*
X5823500Y46073334D01*
X5823500Y47613334D01*
X6556833Y47613334D01*
X7216833Y46073334D02*
X7216833Y47613334D01*
X8096833Y46073334D01*
X8096833Y47613334D01*
X8756833Y46146667D02*
X8976833Y46073334D01*
X9343500Y46073334D01*
X9490166Y46146667D01*
X9563500Y46220000D01*
X9636833Y46366667D01*
X9636833Y46513334D01*
X9563500Y46660000D01*
X9490166Y46733334D01*
X9343500Y46806667D01*
X9050166Y46880000D01*
X8903500Y46953334D01*
X8830166Y47026667D01*
X8756833Y47173334D01*
X8756833Y47320000D01*
X8830166Y47466667D01*
X8903500Y47540000D01*
X9050166Y47613334D01*
X9416833Y47613334D01*
X9636833Y47540000D01*
X10590166Y47613334D02*
X10883500Y47613334D01*
X11030166Y47540000D01*
X11176833Y47393334D01*
X11250166Y47100000D01*
X11250166Y46586667D01*
X11176833Y46293334D01*
X11030166Y46146667D01*
X10883500Y46073334D01*
X10590166Y46073334D01*
X10443500Y46146667D01*
X10296833Y46293334D01*
X10223500Y46586667D01*
X10223500Y47100000D01*
X10296833Y47393334D01*
X10443500Y47540000D01*
X10590166Y47613334D01*
X12790166Y46073334D02*
X12276833Y46806667D01*
X11910166Y46073334D02*
X11910166Y47613334D01*
X12496833Y47613334D01*
X12643500Y47540000D01*
X12716833Y47466667D01*
X12790166Y47320000D01*
X12790166Y47100000D01*
X12716833Y46953334D01*
X12643500Y46880000D01*
X12496833Y46806667D01*
X11910166Y46806667D01*
X13743500Y46806667D02*
X13743500Y46073334D01*
X13230166Y47613334D02*
X13743500Y46806667D01*
X14256833Y47613334D01*
X16456833Y46880000D02*
X16676833Y46806667D01*
X16750166Y46733334D01*
X16823500Y46586667D01*
X16823500Y46366667D01*
X16750166Y46220000D01*
X16676833Y46146667D01*
X16530166Y46073334D01*
X15943500Y46073334D01*
X15943500Y47613334D01*
X16456833Y47613334D01*
X16603500Y47540000D01*
X16676833Y47466667D01*
X16750166Y47320000D01*
X16750166Y47173334D01*
X16676833Y47026667D01*
X16603500Y46953334D01*
X16456833Y46880000D01*
X15943500Y46880000D01*
X18363500Y46073334D02*
X17850166Y46806667D01*
X17483500Y46073334D02*
X17483500Y47613334D01*
X18070166Y47613334D01*
X18216833Y47540000D01*
X18290166Y47466667D01*
X18363500Y47320000D01*
X18363500Y47100000D01*
X18290166Y46953334D01*
X18216833Y46880000D01*
X18070166Y46806667D01*
X17483500Y46806667D01*
X19023500Y46073334D02*
X19023500Y47613334D01*
X19756833Y46073334D02*
X19756833Y47613334D01*
X20123500Y47613334D01*
X20343500Y47540000D01*
X20490166Y47393334D01*
X20563500Y47246667D01*
X20636833Y46953334D01*
X20636833Y46733334D01*
X20563500Y46440000D01*
X20490166Y46293334D01*
X20343500Y46146667D01*
X20123500Y46073334D01*
X19756833Y46073334D01*
X22103500Y47540000D02*
X21956833Y47613334D01*
X21736833Y47613334D01*
X21516833Y47540000D01*
X21370166Y47393334D01*
X21296833Y47246667D01*
X21223500Y46953334D01*
X21223500Y46733334D01*
X21296833Y46440000D01*
X21370166Y46293334D01*
X21516833Y46146667D01*
X21736833Y46073334D01*
X21883500Y46073334D01*
X22103500Y46146667D01*
X22176833Y46220000D01*
X22176833Y46733334D01*
X21883500Y46733334D01*
X22836833Y46880000D02*
X23350166Y46880000D01*
X23570166Y46073334D02*
X22836833Y46073334D01*
X22836833Y47613334D01*
X23570166Y47613334D01*
D13*
X55603333Y27625715D02*
X55561428Y27583810D01*
X55435714Y27541905D01*
X55351904Y27541905D01*
X55226190Y27583810D01*
X55142380Y27667620D01*
X55100476Y27751429D01*
X55058571Y27919048D01*
X55058571Y28044762D01*
X55100476Y28212381D01*
X55142380Y28296191D01*
X55226190Y28380000D01*
X55351904Y28421905D01*
X55435714Y28421905D01*
X55561428Y28380000D01*
X55603333Y28338096D01*
X56022380Y27541905D02*
X56190000Y27541905D01*
X56273809Y27583810D01*
X56315714Y27625715D01*
X56399523Y27751429D01*
X56441428Y27919048D01*
X56441428Y28254286D01*
X56399523Y28338096D01*
X56357619Y28380000D01*
X56273809Y28421905D01*
X56106190Y28421905D01*
X56022380Y28380000D01*
X55980476Y28338096D01*
X55938571Y28254286D01*
X55938571Y28044762D01*
X55980476Y27960953D01*
X56022380Y27919048D01*
X56106190Y27877143D01*
X56273809Y27877143D01*
X56357619Y27919048D01*
X56399523Y27960953D01*
X56441428Y28044762D01*
X39240000Y58089429D02*
X39281904Y58173239D01*
X39281904Y58298953D01*
X39240000Y58424667D01*
X39156190Y58508477D01*
X39072380Y58550381D01*
X38904761Y58592286D01*
X38779047Y58592286D01*
X38611428Y58550381D01*
X38527619Y58508477D01*
X38443809Y58424667D01*
X38401904Y58298953D01*
X38401904Y58215143D01*
X38443809Y58089429D01*
X38485714Y58047524D01*
X38779047Y58047524D01*
X38779047Y58215143D01*
X38401904Y57670381D02*
X39281904Y57670381D01*
X38401904Y57167524D01*
X39281904Y57167524D01*
X38401904Y56748477D02*
X39281904Y56748477D01*
X39281904Y56538953D01*
X39240000Y56413239D01*
X39156190Y56329429D01*
X39072380Y56287524D01*
X38904761Y56245620D01*
X38779047Y56245620D01*
X38611428Y56287524D01*
X38527619Y56329429D01*
X38443809Y56413239D01*
X38401904Y56538953D01*
X38401904Y56748477D01*
X26078190Y42125715D02*
X26036285Y42083810D01*
X25910571Y42041905D01*
X25826761Y42041905D01*
X25701047Y42083810D01*
X25617238Y42167620D01*
X25575333Y42251429D01*
X25533428Y42419048D01*
X25533428Y42544762D01*
X25575333Y42712381D01*
X25617238Y42796191D01*
X25701047Y42880000D01*
X25826761Y42921905D01*
X25910571Y42921905D01*
X26036285Y42880000D01*
X26078190Y42838096D01*
X26916285Y42041905D02*
X26413428Y42041905D01*
X26664857Y42041905D02*
X26664857Y42921905D01*
X26581047Y42796191D01*
X26497238Y42712381D01*
X26413428Y42670477D01*
X27754380Y42041905D02*
X27251523Y42041905D01*
X27502952Y42041905D02*
X27502952Y42921905D01*
X27419142Y42796191D01*
X27335333Y42712381D01*
X27251523Y42670477D01*
D14*
X18082857Y29062858D02*
X17642857Y29691429D01*
X17328571Y29062858D02*
X17328571Y30382858D01*
X17831428Y30382858D01*
X17957142Y30320000D01*
X18020000Y30257143D01*
X18082857Y30131429D01*
X18082857Y29942858D01*
X18020000Y29817143D01*
X17957142Y29754286D01*
X17831428Y29691429D01*
X17328571Y29691429D01*
X18648571Y29754286D02*
X19088571Y29754286D01*
X19277142Y29062858D02*
X18648571Y29062858D01*
X18648571Y30382858D01*
X19277142Y30382858D01*
X19780000Y29125715D02*
X19968571Y29062858D01*
X20282857Y29062858D01*
X20408571Y29125715D01*
X20471428Y29188572D01*
X20534285Y29314286D01*
X20534285Y29440000D01*
X20471428Y29565715D01*
X20408571Y29628572D01*
X20282857Y29691429D01*
X20031428Y29754286D01*
X19905714Y29817143D01*
X19842857Y29880000D01*
X19780000Y30005715D01*
X19780000Y30131429D01*
X19842857Y30257143D01*
X19905714Y30320000D01*
X20031428Y30382858D01*
X20345714Y30382858D01*
X20534285Y30320000D01*
X21100000Y29754286D02*
X21540000Y29754286D01*
X21728571Y29062858D02*
X21100000Y29062858D01*
X21100000Y30382858D01*
X21728571Y30382858D01*
X22105714Y30382858D02*
X22860000Y30382858D01*
X22482857Y29062858D02*
X22482857Y30382858D01*
D13*
X36731904Y58801810D02*
X36731904Y58257048D01*
X36396666Y58550381D01*
X36396666Y58424667D01*
X36354761Y58340858D01*
X36312857Y58298953D01*
X36229047Y58257048D01*
X36019523Y58257048D01*
X35935714Y58298953D01*
X35893809Y58340858D01*
X35851904Y58424667D01*
X35851904Y58676096D01*
X35893809Y58759905D01*
X35935714Y58801810D01*
X35935714Y57879905D02*
X35893809Y57838000D01*
X35851904Y57879905D01*
X35893809Y57921810D01*
X35935714Y57879905D01*
X35851904Y57879905D01*
X36731904Y57544667D02*
X36731904Y56999905D01*
X36396666Y57293239D01*
X36396666Y57167524D01*
X36354761Y57083715D01*
X36312857Y57041810D01*
X36229047Y56999905D01*
X36019523Y56999905D01*
X35935714Y57041810D01*
X35893809Y57083715D01*
X35851904Y57167524D01*
X35851904Y57418953D01*
X35893809Y57502762D01*
X35935714Y57544667D01*
X36731904Y56748477D02*
X35851904Y56455143D01*
X36731904Y56161810D01*
X41881904Y57041810D02*
X41881904Y57460858D01*
X41462857Y57502762D01*
X41504761Y57460858D01*
X41546666Y57377048D01*
X41546666Y57167524D01*
X41504761Y57083715D01*
X41462857Y57041810D01*
X41379047Y56999905D01*
X41169523Y56999905D01*
X41085714Y57041810D01*
X41043809Y57083715D01*
X41001904Y57167524D01*
X41001904Y57377048D01*
X41043809Y57460858D01*
X41085714Y57502762D01*
X41881904Y56748477D02*
X41001904Y56455143D01*
X41881904Y56161810D01*
X67921904Y55412381D02*
X67921904Y54867620D01*
X67586666Y55160953D01*
X67586666Y55035239D01*
X67544761Y54951429D01*
X67502857Y54909524D01*
X67419047Y54867620D01*
X67209523Y54867620D01*
X67125714Y54909524D01*
X67083809Y54951429D01*
X67041904Y55035239D01*
X67041904Y55286667D01*
X67083809Y55370477D01*
X67125714Y55412381D01*
X67125714Y54490477D02*
X67083809Y54448572D01*
X67041904Y54490477D01*
X67083809Y54532381D01*
X67125714Y54490477D01*
X67041904Y54490477D01*
X67921904Y54155239D02*
X67921904Y53610477D01*
X67586666Y53903810D01*
X67586666Y53778096D01*
X67544761Y53694286D01*
X67502857Y53652381D01*
X67419047Y53610477D01*
X67209523Y53610477D01*
X67125714Y53652381D01*
X67083809Y53694286D01*
X67041904Y53778096D01*
X67041904Y54029524D01*
X67083809Y54113334D01*
X67125714Y54155239D01*
X67921904Y53359048D02*
X67041904Y53065715D01*
X67921904Y52772381D01*
X67041904Y51305715D02*
X67460952Y51599048D01*
X67041904Y51808572D02*
X67921904Y51808572D01*
X67921904Y51473334D01*
X67880000Y51389524D01*
X67838095Y51347620D01*
X67754285Y51305715D01*
X67628571Y51305715D01*
X67544761Y51347620D01*
X67502857Y51389524D01*
X67460952Y51473334D01*
X67460952Y51808572D01*
X67502857Y50928572D02*
X67502857Y50635239D01*
X67041904Y50509524D02*
X67041904Y50928572D01*
X67921904Y50928572D01*
X67921904Y50509524D01*
X67880000Y49671429D02*
X67921904Y49755239D01*
X67921904Y49880953D01*
X67880000Y50006667D01*
X67796190Y50090477D01*
X67712380Y50132381D01*
X67544761Y50174286D01*
X67419047Y50174286D01*
X67251428Y50132381D01*
X67167619Y50090477D01*
X67083809Y50006667D01*
X67041904Y49880953D01*
X67041904Y49797143D01*
X67083809Y49671429D01*
X67125714Y49629524D01*
X67419047Y49629524D01*
X67419047Y49797143D01*
X34853333Y12041905D02*
X34560000Y12460953D01*
X34350476Y12041905D02*
X34350476Y12921905D01*
X34685714Y12921905D01*
X34769523Y12880000D01*
X34811428Y12838096D01*
X34853333Y12754286D01*
X34853333Y12628572D01*
X34811428Y12544762D01*
X34769523Y12502858D01*
X34685714Y12460953D01*
X34350476Y12460953D01*
X35188571Y12838096D02*
X35230476Y12880000D01*
X35314285Y12921905D01*
X35523809Y12921905D01*
X35607619Y12880000D01*
X35649523Y12838096D01*
X35691428Y12754286D01*
X35691428Y12670477D01*
X35649523Y12544762D01*
X35146666Y12041905D01*
X35691428Y12041905D01*
X51826666Y22083810D02*
X51952380Y22041905D01*
X52161904Y22041905D01*
X52245714Y22083810D01*
X52287619Y22125715D01*
X52329523Y22209524D01*
X52329523Y22293334D01*
X52287619Y22377143D01*
X52245714Y22419048D01*
X52161904Y22460953D01*
X51994285Y22502858D01*
X51910476Y22544762D01*
X51868571Y22586667D01*
X51826666Y22670477D01*
X51826666Y22754286D01*
X51868571Y22838096D01*
X51910476Y22880000D01*
X51994285Y22921905D01*
X52203809Y22921905D01*
X52329523Y22880000D01*
X52622857Y22921905D02*
X52832380Y22041905D01*
X53000000Y22670477D01*
X53167619Y22041905D01*
X53377142Y22921905D01*
X54089523Y22628572D02*
X54089523Y22041905D01*
X53880000Y22963810D02*
X53670476Y22335239D01*
X54215238Y22335239D01*
X50103333Y56375715D02*
X50061428Y56333810D01*
X49935714Y56291905D01*
X49851904Y56291905D01*
X49726190Y56333810D01*
X49642380Y56417620D01*
X49600476Y56501429D01*
X49558571Y56669048D01*
X49558571Y56794762D01*
X49600476Y56962381D01*
X49642380Y57046191D01*
X49726190Y57130000D01*
X49851904Y57171905D01*
X49935714Y57171905D01*
X50061428Y57130000D01*
X50103333Y57088096D01*
X50396666Y57171905D02*
X50983333Y57171905D01*
X50606190Y56291905D01*
X51952380Y60252858D02*
X52245714Y60252858D01*
X52371428Y59791905D02*
X51952380Y59791905D01*
X51952380Y60671905D01*
X52371428Y60671905D01*
X52706666Y59833810D02*
X52832380Y59791905D01*
X53041904Y59791905D01*
X53125714Y59833810D01*
X53167619Y59875715D01*
X53209523Y59959524D01*
X53209523Y60043334D01*
X53167619Y60127143D01*
X53125714Y60169048D01*
X53041904Y60210953D01*
X52874285Y60252858D01*
X52790476Y60294762D01*
X52748571Y60336667D01*
X52706666Y60420477D01*
X52706666Y60504286D01*
X52748571Y60588096D01*
X52790476Y60630000D01*
X52874285Y60671905D01*
X53083809Y60671905D01*
X53209523Y60630000D01*
X53586666Y59791905D02*
X53586666Y60671905D01*
X53796190Y60671905D01*
X53921904Y60630000D01*
X54005714Y60546191D01*
X54047619Y60462381D01*
X54089523Y60294762D01*
X54089523Y60169048D01*
X54047619Y60001429D01*
X54005714Y59917620D01*
X53921904Y59833810D01*
X53796190Y59791905D01*
X53586666Y59791905D01*
D12*
X18350119Y39052381D02*
X17983452Y39576191D01*
X17721547Y39052381D02*
X17721547Y40152381D01*
X18140595Y40152381D01*
X18245357Y40100000D01*
X18297738Y40047620D01*
X18350119Y39942858D01*
X18350119Y39785715D01*
X18297738Y39680953D01*
X18245357Y39628572D01*
X18140595Y39576191D01*
X17721547Y39576191D01*
X18821547Y39628572D02*
X19188214Y39628572D01*
X19345357Y39052381D02*
X18821547Y39052381D01*
X18821547Y40152381D01*
X19345357Y40152381D01*
X19659642Y40152381D02*
X20026309Y39052381D01*
X20392976Y40152381D01*
X20759642Y39157143D02*
X20812023Y39104762D01*
X20759642Y39052381D01*
X20707261Y39104762D01*
X20759642Y39157143D01*
X20759642Y39052381D01*
X22697738Y39052381D02*
X22069166Y39052381D01*
X22383452Y39052381D02*
X22383452Y40152381D01*
X22278690Y39995239D01*
X22173928Y39890477D01*
X22069166Y39838096D01*
X23640595Y39052381D02*
X23640595Y39628572D01*
X23588214Y39733334D01*
X23483452Y39785715D01*
X23273928Y39785715D01*
X23169166Y39733334D01*
X23640595Y39104762D02*
X23535833Y39052381D01*
X23273928Y39052381D01*
X23169166Y39104762D01*
X23116785Y39209524D01*
X23116785Y39314286D01*
X23169166Y39419048D01*
X23273928Y39471429D01*
X23535833Y39471429D01*
X23640595Y39523810D01*
D13*
X54853333Y12041905D02*
X54560000Y12460953D01*
X54350476Y12041905D02*
X54350476Y12921905D01*
X54685714Y12921905D01*
X54769523Y12880000D01*
X54811428Y12838096D01*
X54853333Y12754286D01*
X54853333Y12628572D01*
X54811428Y12544762D01*
X54769523Y12502858D01*
X54685714Y12460953D01*
X54350476Y12460953D01*
X55691428Y12041905D02*
X55188571Y12041905D01*
X55440000Y12041905D02*
X55440000Y12921905D01*
X55356190Y12796191D01*
X55272380Y12712381D01*
X55188571Y12670477D01*
X33301904Y49296667D02*
X33720952Y49590000D01*
X33301904Y49799524D02*
X34181904Y49799524D01*
X34181904Y49464286D01*
X34140000Y49380477D01*
X34098095Y49338572D01*
X34014285Y49296667D01*
X33888571Y49296667D01*
X33804761Y49338572D01*
X33762857Y49380477D01*
X33720952Y49464286D01*
X33720952Y49799524D01*
X34181904Y49003334D02*
X33301904Y48416667D01*
X34181904Y48416667D02*
X33301904Y49003334D01*
X46853333Y17875715D02*
X46811428Y17833810D01*
X46685714Y17791905D01*
X46601904Y17791905D01*
X46476190Y17833810D01*
X46392380Y17917620D01*
X46350476Y18001429D01*
X46308571Y18169048D01*
X46308571Y18294762D01*
X46350476Y18462381D01*
X46392380Y18546191D01*
X46476190Y18630000D01*
X46601904Y18671905D01*
X46685714Y18671905D01*
X46811428Y18630000D01*
X46853333Y18588096D01*
X47607619Y18378572D02*
X47607619Y17791905D01*
X47398095Y18713810D02*
X47188571Y18085239D01*
X47733333Y18085239D01*
X61120000Y52921905D02*
X61287619Y52921905D01*
X61371428Y52880000D01*
X61455238Y52796191D01*
X61497142Y52628572D01*
X61497142Y52335239D01*
X61455238Y52167620D01*
X61371428Y52083810D01*
X61287619Y52041905D01*
X61120000Y52041905D01*
X61036190Y52083810D01*
X60952380Y52167620D01*
X60910476Y52335239D01*
X60910476Y52628572D01*
X60952380Y52796191D01*
X61036190Y52880000D01*
X61120000Y52921905D01*
X61874285Y52921905D02*
X61874285Y52209524D01*
X61916190Y52125715D01*
X61958095Y52083810D01*
X62041904Y52041905D01*
X62209523Y52041905D01*
X62293333Y52083810D01*
X62335238Y52125715D01*
X62377142Y52209524D01*
X62377142Y52921905D01*
X62670476Y52921905D02*
X63173333Y52921905D01*
X62921904Y52041905D02*
X62921904Y52921905D01*
D12*
%TO.C,@HOLE2*%
%TO.C,@HOLE1*%
%TO.C,@HOLE3*%
%TO.C,@HOLE0*%
D16*
%TO.C,C1*%
X63175000Y56650000D02*
X61325000Y56650000D01*
X61325000Y57850000D02*
X63175000Y57850000D01*
G36*
X61750000Y56600000D02*
G01*
X61250000Y56600000D01*
X61250000Y57900000D01*
X61750000Y57900000D01*
X61750000Y56600000D01*
G37*
G36*
X63250000Y56600000D02*
G01*
X62750000Y56600000D01*
X62750000Y57900000D01*
X63250000Y57900000D01*
X63250000Y56600000D01*
G37*
D17*
%TO.C,IC1*%
X27300000Y15750000D02*
X27300000Y35750000D01*
D18*
X42700000Y20000000D02*
X42700000Y15750000D01*
X27300000Y15750000D02*
X27300000Y20000000D01*
X42700000Y15750000D02*
X27300000Y15750000D01*
D17*
X27300000Y35750000D02*
X42700000Y35750000D01*
X42700000Y35750000D02*
X42700000Y15750000D01*
X43200000Y22100000D02*
G75*
G03*
X43200000Y22000000I0J-50000D01*
G01*
X43200000Y22000000D02*
G75*
G03*
X43200000Y22100000I0J50000D01*
G01*
D19*
%TO.C,U3*%
X51881300Y63012000D02*
X51601900Y63012000D01*
X51601900Y61488000D02*
X51881300Y61488000D01*
X54395900Y61488000D02*
X54395900Y63012000D01*
X54116500Y61488000D02*
X54395900Y61488000D01*
X54395900Y63012000D02*
X54116500Y63012000D01*
X51601900Y63012000D02*
X51601900Y61488000D01*
X54184700Y63574800D02*
G75*
G03*
X54184700Y63320800I0J-127000D01*
G01*
X54184700Y63320800D02*
G75*
G03*
X54184700Y63574800I0J127000D01*
G01*
D20*
%TO.C,SW4*%
X52550000Y28550000D02*
X52550000Y23450000D01*
X47450000Y23450000D02*
X47450000Y28550000D01*
X47450000Y28550000D02*
X52550000Y28550000D01*
X47450000Y26956250D02*
X47450000Y25043750D01*
X52550000Y23450000D02*
X47450000Y23450000D01*
X52550000Y26956250D02*
X52550000Y25043750D01*
X48087500Y23450000D02*
X51912500Y23450000D01*
X48087500Y28550000D02*
X51912500Y28550000D01*
X51400000Y26000000D02*
G75*
G03*
X51400000Y26000000I-1400000J0D01*
G01*
D16*
%TO.C,C6*%
X13650000Y24325000D02*
X13650000Y26175000D01*
X14850000Y26175000D02*
X14850000Y24325000D01*
G36*
X14900000Y25750000D02*
G01*
X13600000Y25750000D01*
X13600000Y26250000D01*
X14900000Y26250000D01*
X14900000Y25750000D01*
G37*
G36*
X14900000Y24250000D02*
G01*
X13600000Y24250000D01*
X13600000Y24750000D01*
X14900000Y24750000D01*
X14900000Y24250000D01*
G37*
%TO.C,C3*%
X19400000Y20075000D02*
X19400000Y21925000D01*
X20600000Y21925000D02*
X20600000Y20075000D01*
G36*
X20650000Y20000000D02*
G01*
X19350000Y20000000D01*
X19350000Y20500000D01*
X20650000Y20500000D01*
X20650000Y20000000D01*
G37*
G36*
X20650000Y21500000D02*
G01*
X19350000Y21500000D01*
X19350000Y22000000D01*
X20650000Y22000000D01*
X20650000Y21500000D01*
G37*
%TO.C,C9*%
X55150000Y24325000D02*
X55150000Y26175000D01*
X56350000Y26175000D02*
X56350000Y24325000D01*
G36*
X56400000Y24250000D02*
G01*
X55100000Y24250000D01*
X55100000Y24750000D01*
X56400000Y24750000D01*
X56400000Y24250000D01*
G37*
G36*
X56400000Y25750000D02*
G01*
X55100000Y25750000D01*
X55100000Y26250000D01*
X56400000Y26250000D01*
X56400000Y25750000D01*
G37*
D19*
%TO.C,R8*%
X30660000Y39615000D02*
X29840000Y39615000D01*
X30660000Y40885000D02*
X29840000Y40885000D01*
G36*
X31316800Y39548500D02*
G01*
X30666800Y39548500D01*
X30666800Y40948500D01*
X31316800Y40948500D01*
X31316800Y39548500D01*
G37*
G36*
X29843600Y39548500D02*
G01*
X29193600Y39548500D01*
X29193600Y40948500D01*
X29843600Y40948500D01*
X29843600Y39548500D01*
G37*
D16*
%TO.C,C10*%
X29325000Y45350000D02*
X31175000Y45350000D01*
X31175000Y44150000D02*
X29325000Y44150000D01*
G36*
X29750000Y44100000D02*
G01*
X29250000Y44100000D01*
X29250000Y45400000D01*
X29750000Y45400000D01*
X29750000Y44100000D01*
G37*
G36*
X31250000Y44100000D02*
G01*
X30750000Y44100000D01*
X30750000Y45400000D01*
X31250000Y45400000D01*
X31250000Y44100000D01*
G37*
%TO.C,C4*%
X47600000Y21925000D02*
X47600000Y20075000D01*
X46400000Y20075000D02*
X46400000Y21925000D01*
G36*
X47650000Y21500000D02*
G01*
X46350000Y21500000D01*
X46350000Y22000000D01*
X47650000Y22000000D01*
X47650000Y21500000D01*
G37*
G36*
X47650000Y20000000D02*
G01*
X46350000Y20000000D01*
X46350000Y20500000D01*
X47650000Y20500000D01*
X47650000Y20000000D01*
G37*
D19*
%TO.C,R7*%
X23635000Y21410000D02*
X23635000Y20590000D01*
X22365000Y21410000D02*
X22365000Y20590000D01*
G36*
X23701500Y19943600D02*
G01*
X22301500Y19943600D01*
X22301500Y20593600D01*
X23701500Y20593600D01*
X23701500Y19943600D01*
G37*
G36*
X23701500Y21416800D02*
G01*
X22301500Y21416800D01*
X22301500Y22066800D01*
X23701500Y22066800D01*
X23701500Y21416800D01*
G37*
%TO.C,U2*%
X64155000Y50950600D02*
X64155000Y51738000D01*
X60345000Y55903600D02*
X60345000Y54405000D01*
X64155000Y55903600D02*
X60345000Y55903600D01*
X60345000Y49096400D02*
X64155000Y49096400D01*
X60345000Y50595000D02*
X60345000Y49096400D01*
X64155000Y49096400D02*
X64155000Y49452000D01*
X64155000Y53262000D02*
X64155000Y54049400D01*
X64155000Y55548000D02*
X64155000Y55903600D01*
D18*
%TO.C,J1*%
X56970000Y66610000D02*
X56970000Y67820000D01*
X56970000Y70540000D02*
X56970000Y72030000D01*
X48030000Y66610000D02*
X48030000Y67820000D01*
X56970000Y72030000D02*
X48030000Y72030000D01*
X48030000Y72030000D02*
X48030000Y70540000D01*
D19*
%TO.C,R6*%
X29590000Y6635000D02*
X30410000Y6635000D01*
X29590000Y5365000D02*
X30410000Y5365000D01*
G36*
X29583200Y5301500D02*
G01*
X28933200Y5301500D01*
X28933200Y6701500D01*
X29583200Y6701500D01*
X29583200Y5301500D01*
G37*
G36*
X31056400Y5301500D02*
G01*
X30406400Y5301500D01*
X30406400Y6701500D01*
X31056400Y6701500D01*
X31056400Y5301500D01*
G37*
D16*
%TO.C,C11*%
X29325000Y43100000D02*
X31175000Y43100000D01*
X31175000Y41900000D02*
X29325000Y41900000D01*
G36*
X29750000Y41850000D02*
G01*
X29250000Y41850000D01*
X29250000Y43150000D01*
X29750000Y43150000D01*
X29750000Y41850000D01*
G37*
G36*
X31250000Y41850000D02*
G01*
X30750000Y41850000D01*
X30750000Y43150000D01*
X31250000Y43150000D01*
X31250000Y41850000D01*
G37*
D19*
%TO.C,R10*%
X47340000Y62885000D02*
X48160000Y62885000D01*
X47340000Y61615000D02*
X48160000Y61615000D01*
G36*
X47333200Y61551500D02*
G01*
X46683200Y61551500D01*
X46683200Y62951500D01*
X47333200Y62951500D01*
X47333200Y61551500D01*
G37*
G36*
X48806400Y61551500D02*
G01*
X48156400Y61551500D01*
X48156400Y62951500D01*
X48806400Y62951500D01*
X48806400Y61551500D01*
G37*
%TO.C,U1*%
X33501400Y43069600D02*
X36498600Y43069600D01*
X33501400Y46930400D02*
X33501400Y44111000D01*
X36498600Y44111000D02*
X36498600Y46930400D01*
X36498600Y46930400D02*
X33501400Y46930400D01*
X36498600Y43069600D02*
X36498600Y43272800D01*
X33501400Y43272800D02*
X33501400Y43069600D01*
D20*
%TO.C,SW3*%
X22550000Y25043750D02*
X22550000Y26956250D01*
X22550000Y28550000D02*
X22550000Y23450000D01*
X21912500Y28550000D02*
X18087500Y28550000D01*
X22550000Y23450000D02*
X17450000Y23450000D01*
X21912500Y23450000D02*
X18087500Y23450000D01*
X17450000Y28550000D02*
X22550000Y28550000D01*
X17450000Y25043750D02*
X17450000Y26956250D01*
X17450000Y23450000D02*
X17450000Y28550000D01*
X21400000Y26000000D02*
G75*
G03*
X21400000Y26000000I-1400000J0D01*
G01*
D16*
%TO.C,C8*%
X55925000Y57900000D02*
X54075000Y57900000D01*
X54075000Y59100000D02*
X55925000Y59100000D01*
G36*
X54500000Y57850000D02*
G01*
X54000000Y57850000D01*
X54000000Y59150000D01*
X54500000Y59150000D01*
X54500000Y57850000D01*
G37*
G36*
X56000000Y57850000D02*
G01*
X55500000Y57850000D01*
X55500000Y59150000D01*
X56000000Y59150000D01*
X56000000Y57850000D01*
G37*
D19*
%TO.C,R4*%
X39590000Y6635000D02*
X40410000Y6635000D01*
X39590000Y5365000D02*
X40410000Y5365000D01*
G36*
X39583200Y5301500D02*
G01*
X38933200Y5301500D01*
X38933200Y6701500D01*
X39583200Y6701500D01*
X39583200Y5301500D01*
G37*
G36*
X41056400Y5301500D02*
G01*
X40406400Y5301500D01*
X40406400Y6701500D01*
X41056400Y6701500D01*
X41056400Y5301500D01*
G37*
%TO.C,R9*%
X57090000Y62885000D02*
X57910000Y62885000D01*
X57090000Y61615000D02*
X57910000Y61615000D01*
G36*
X58556400Y61551500D02*
G01*
X57906400Y61551500D01*
X57906400Y62951500D01*
X58556400Y62951500D01*
X58556400Y61551500D01*
G37*
G36*
X57083200Y61551500D02*
G01*
X56433200Y61551500D01*
X56433200Y62951500D01*
X57083200Y62951500D01*
X57083200Y61551500D01*
G37*
D16*
%TO.C,C7*%
X51175000Y57900000D02*
X49325000Y57900000D01*
X49325000Y59100000D02*
X51175000Y59100000D01*
G36*
X49750000Y57850000D02*
G01*
X49250000Y57850000D01*
X49250000Y59150000D01*
X49750000Y59150000D01*
X49750000Y57850000D01*
G37*
G36*
X51250000Y57850000D02*
G01*
X50750000Y57850000D01*
X50750000Y59150000D01*
X51250000Y59150000D01*
X51250000Y57850000D01*
G37*
%TO.C,C2*%
X61325000Y48350000D02*
X63175000Y48350000D01*
X63175000Y47150000D02*
X61325000Y47150000D01*
G36*
X61750000Y47100000D02*
G01*
X61250000Y47100000D01*
X61250000Y48400000D01*
X61750000Y48400000D01*
X61750000Y47100000D01*
G37*
G36*
X63250000Y47100000D02*
G01*
X62750000Y47100000D01*
X62750000Y48400000D01*
X63250000Y48400000D01*
X63250000Y47100000D01*
G37*
%TO.C,C5*%
X50600000Y21925000D02*
X50600000Y20075000D01*
X49400000Y20075000D02*
X49400000Y21925000D01*
G36*
X50650000Y21500000D02*
G01*
X49350000Y21500000D01*
X49350000Y22000000D01*
X50650000Y22000000D01*
X50650000Y21500000D01*
G37*
G36*
X50650000Y20000000D02*
G01*
X49350000Y20000000D01*
X49350000Y20500000D01*
X50650000Y20500000D01*
X50650000Y20000000D01*
G37*
D19*
%TO.C,R5*%
X34590000Y5365000D02*
X35410000Y5365000D01*
X34590000Y6635000D02*
X35410000Y6635000D01*
G36*
X36056400Y5301500D02*
G01*
X35406400Y5301500D01*
X35406400Y6701500D01*
X36056400Y6701500D01*
X36056400Y5301500D01*
G37*
G36*
X34583200Y5301500D02*
G01*
X33933200Y5301500D01*
X33933200Y6701500D01*
X34583200Y6701500D01*
X34583200Y5301500D01*
G37*
%TD*%
M02*
