%TF.GenerationSoftware,KiCad,Pcbnew,(6.0.1)*%
%TF.CreationDate,2022-09-28T09:38:13-06:00*%
%TF.ProjectId,SENSORY_BRIDGE,53454e53-4f52-4595-9f42-52494447452e,rev?*%
%TF.SameCoordinates,PX6c3e3acPY8584910*%
%TF.FileFunction,Paste,Top*%
%TF.FilePolarity,Positive*%
%FSLAX46Y46*%
G04 Gerber Fmt 4.6, Leading zero omitted, Abs format (unit mm)*
G04 Created by KiCad (PCBNEW (6.0.1)) date 2022-09-28 09:38:13*
%MOMM*%
%LPD*%
G01*
G04 APERTURE LIST*
%ADD10R,1.100000X1.400000*%
%ADD11R,0.800000X0.400000*%
%ADD12R,0.400000X0.800000*%
%ADD13R,1.200000X1.200000*%
%ADD14R,0.800000X0.800000*%
%ADD15R,0.203200X0.609600*%
%ADD16R,1.600000X1.000000*%
%ADD17R,1.400000X1.100000*%
%ADD18R,2.066000X0.901600*%
%ADD19R,2.066000X3.201600*%
%ADD20R,0.600000X1.150000*%
%ADD21R,0.300000X1.150000*%
%ADD22R,2.180000X2.000000*%
%ADD23R,2.180000X1.750000*%
%ADD24R,0.609600X0.533400*%
G04 APERTURE END LIST*
%TO.C,U3*%
G36*
X52235000Y62432500D02*
G01*
X52006400Y62432500D01*
X52006400Y62661100D01*
X52235000Y62661100D01*
X52235000Y62432500D01*
G37*
G36*
X53991400Y61838900D02*
G01*
X53762800Y61838900D01*
X53762800Y62067500D01*
X53991400Y62067500D01*
X53991400Y61838900D01*
G37*
G36*
X53991400Y62432500D02*
G01*
X53762800Y62432500D01*
X53762800Y62661100D01*
X53991400Y62661100D01*
X53991400Y62432500D01*
G37*
G36*
X52235000Y61838900D02*
G01*
X52006400Y61838900D01*
X52006400Y62067500D01*
X52235000Y62067500D01*
X52235000Y61838900D01*
G37*
%TO.C,U1*%
G36*
X35255141Y46548647D02*
G01*
X35485308Y46431371D01*
X35667971Y46248708D01*
X35785247Y46018541D01*
X35825658Y45763400D01*
X35785247Y45508258D01*
X35667971Y45278088D01*
X35485308Y45095428D01*
X35255141Y44978153D01*
X35000724Y44937856D01*
X34915352Y44941585D01*
X34943027Y45257899D01*
X34999275Y45255444D01*
X35156930Y45280413D01*
X35298503Y45352550D01*
X35410849Y45464896D01*
X35482986Y45606469D01*
X35507841Y45763400D01*
X35482986Y45920333D01*
X35410849Y46061903D01*
X35298503Y46174252D01*
X35156930Y46246386D01*
X34999275Y46271356D01*
X34943027Y46268900D01*
X34915352Y46585215D01*
X35000724Y46588944D01*
X35255141Y46548647D01*
G37*
G36*
X35084648Y46585215D02*
G01*
X35056973Y46268900D01*
X35000725Y46271356D01*
X34843070Y46246386D01*
X34701497Y46174252D01*
X34589151Y46061903D01*
X34517014Y45920333D01*
X34492159Y45763400D01*
X34517014Y45606469D01*
X34589151Y45464896D01*
X34701497Y45352550D01*
X34843070Y45280413D01*
X35000725Y45255444D01*
X35056973Y45257899D01*
X35084648Y44941585D01*
X34999276Y44937856D01*
X34744859Y44978153D01*
X34514692Y45095428D01*
X34332029Y45278088D01*
X34214753Y45508258D01*
X34174342Y45763400D01*
X34214753Y46018541D01*
X34332029Y46248708D01*
X34514692Y46431371D01*
X34744859Y46548647D01*
X34999276Y46588944D01*
X35084648Y46585215D01*
G37*
%TD*%
D10*
%TO.C,C1*%
X61250000Y57250000D03*
X63250000Y57250000D03*
%TD*%
D11*
%TO.C,IC1*%
X42000000Y22050000D03*
X42000000Y22900000D03*
X42000000Y23750000D03*
X42000000Y24600000D03*
X42000000Y25450000D03*
X42000000Y26300000D03*
X42000000Y27150000D03*
X42000000Y28000000D03*
X42000000Y28850000D03*
X42000000Y29700000D03*
X42000000Y30550000D03*
X42000000Y31400000D03*
X42000000Y32250000D03*
X42000000Y33100000D03*
X42000000Y33950000D03*
D12*
X40950000Y35000000D03*
X40100000Y35000000D03*
X39250000Y35000000D03*
X38400000Y35000000D03*
X37550000Y35000000D03*
X36700000Y35000000D03*
X35850000Y35000000D03*
X35000000Y35000000D03*
X34150000Y35000000D03*
X33300000Y35000000D03*
X32450000Y35000000D03*
X31600000Y35000000D03*
X30750000Y35000000D03*
X29900000Y35000000D03*
X29050000Y35000000D03*
D11*
X28000000Y33950000D03*
X28000000Y33100000D03*
X28000000Y32250000D03*
X28000000Y31400000D03*
X28000000Y30550000D03*
X28000000Y29700000D03*
X28000000Y28850000D03*
X28000000Y28000000D03*
X28000000Y27150000D03*
X28000000Y26300000D03*
X28000000Y25450000D03*
X28000000Y24600000D03*
X28000000Y23750000D03*
X28000000Y22900000D03*
X28000000Y22050000D03*
D12*
X29050000Y21000000D03*
X29900000Y21000000D03*
X30750000Y21000000D03*
X31600000Y21000000D03*
X32450000Y21000000D03*
X33300000Y21000000D03*
X34150000Y21000000D03*
X35000000Y21000000D03*
X35850000Y21000000D03*
X36700000Y21000000D03*
X37550000Y21000000D03*
X38400000Y21000000D03*
X39250000Y21000000D03*
X40100000Y21000000D03*
X40950000Y21000000D03*
D13*
X35000000Y28000000D03*
D14*
X42000000Y21000000D03*
X42000000Y35000000D03*
X28000000Y35000000D03*
X28000000Y21000000D03*
D13*
X36650000Y26350000D03*
X36650000Y28000000D03*
X36650000Y29650000D03*
X35000000Y29650000D03*
X33350000Y29650000D03*
X33350000Y28000000D03*
X33350000Y26350000D03*
X35000000Y26350000D03*
%TD*%
D15*
%TO.C,U3*%
X53673900Y62750000D03*
X53223900Y62750000D03*
X52773900Y62750000D03*
X52323900Y62750000D03*
X52323900Y61750000D03*
X52773900Y61750000D03*
X53223900Y61750000D03*
X53673900Y61750000D03*
%TD*%
D16*
%TO.C,SW4*%
X46800000Y27900000D03*
X53200000Y27900000D03*
X46800000Y24100000D03*
X53200000Y24100000D03*
%TD*%
D17*
%TO.C,C6*%
X14250000Y24250000D03*
X14250000Y26250000D03*
%TD*%
%TO.C,C3*%
X20000000Y22000000D03*
X20000000Y20000000D03*
%TD*%
%TO.C,C9*%
X55750000Y24250000D03*
X55750000Y26250000D03*
%TD*%
D10*
%TO.C,R8*%
X31250000Y40250000D03*
X29250000Y40250000D03*
%TD*%
%TO.C,C10*%
X31250000Y44750000D03*
X29250000Y44750000D03*
%TD*%
D17*
%TO.C,C4*%
X47000000Y22000000D03*
X47000000Y20000000D03*
%TD*%
%TO.C,R7*%
X23000000Y22000000D03*
X23000000Y20000000D03*
%TD*%
D18*
%TO.C,U2*%
X65325800Y50200000D03*
X65325800Y52500000D03*
X65325800Y54800000D03*
D19*
X59174200Y52500000D03*
%TD*%
D20*
%TO.C,J1*%
X55700000Y64675000D03*
X54900000Y64675000D03*
D21*
X53750000Y64675000D03*
X52750000Y64675000D03*
X52250000Y64675000D03*
X51250000Y64675000D03*
D20*
X49300000Y64675000D03*
X50100000Y64675000D03*
D21*
X50750000Y64675000D03*
X51750000Y64675000D03*
X53250000Y64675000D03*
X54250000Y64675000D03*
D22*
X57610000Y65250000D03*
X47390000Y65250000D03*
D23*
X57610000Y68930000D03*
X47390000Y68930000D03*
%TD*%
D10*
%TO.C,R6*%
X29000000Y6000000D03*
X31000000Y6000000D03*
%TD*%
%TO.C,C11*%
X31250000Y42500000D03*
X29250000Y42500000D03*
%TD*%
%TO.C,R10*%
X46750000Y62250000D03*
X48750000Y62250000D03*
%TD*%
D24*
%TO.C,U1*%
X35900000Y43689491D03*
X35889000Y44511400D03*
X34111000Y44511400D03*
X34100000Y43689491D03*
X35000000Y43689491D03*
%TD*%
D16*
%TO.C,SW3*%
X23200000Y24100000D03*
X16800000Y24100000D03*
X23200000Y27900000D03*
X16800000Y27900000D03*
%TD*%
D10*
%TO.C,C8*%
X54000000Y58500000D03*
X56000000Y58500000D03*
%TD*%
%TO.C,R4*%
X39000000Y6000000D03*
X41000000Y6000000D03*
%TD*%
%TO.C,R9*%
X56500000Y62250000D03*
X58500000Y62250000D03*
%TD*%
%TO.C,C7*%
X51250000Y58500000D03*
X49250000Y58500000D03*
%TD*%
%TO.C,C2*%
X61250000Y47750000D03*
X63250000Y47750000D03*
%TD*%
D17*
%TO.C,C5*%
X50000000Y22000000D03*
X50000000Y20000000D03*
%TD*%
D10*
%TO.C,R5*%
X34000000Y6000000D03*
X36000000Y6000000D03*
%TD*%
M02*
